<?xml version="1.0" encoding="UTF-8"?> <svg xmlns="http://www.w3.org/2000/svg" xmlns:xlink="http://www.w3.org/1999/xlink" viewBox="0 0 150 150"><defs><clipPath id="a"><rect width="150" height="150" fill="none"></rect></clipPath></defs><g clip-path="url(#a)"><path d="M123.52,62.45c.07-.49.13-1,.19-1.5A49.09,49.09,0,0,0,95.64,11.14l1.09-2,.8-1.45c.07-.14.14-.27.22-.4.19-.34.39-.7.57-1.08a2.51,2.51,0,0,0,.09-2.09A2.57,2.57,0,0,0,96.84,2.7a4.17,4.17,0,0,0-1.43-.19H54.5A3.69,3.69,0,0,0,53,2.77,2.5,2.5,0,0,0,51.59,6a4.55,4.55,0,0,0,.28.58l.05.08c.53,1,1.07,2,1.61,2.94l.84,1.54q-2,.93-3.93,2a50.33,50.33,0,0,0-8.3,6.07,48.92,48.92,0,0,0-15.41,28,46.16,46.16,0,0,0-.68,6.45,49.49,49.49,0,0,0,.43,8.63l0,.1a55.71,55.71,0,0,0-7.73,31.24,56.82,56.82,0,0,0,2.95,15.58,54,54,0,0,0,7,13.72,2,2,0,0,0,.19.31l.08.12a.36.36,0,0,1,.07.1,57.13,57.13,0,0,0,25.63,20.11,55.54,55.54,0,0,0,15.61,3.65c1.57.13,3.17.2,4.75.2h0a56.94,56.94,0,0,0,8-.58,55.36,55.36,0,0,0,15.4-4.59A56.89,56.89,0,0,0,121,123.49a4.41,4.41,0,0,0,.25-.39,56.37,56.37,0,0,0,2.24-60.65Z" fill="#cf2257"></path><path d="M56.5,11.82l-.31-.58c-1-1.78-1.95-3.55-2.92-5.32A4,4,0,0,1,53,5.46a1,1,0,0,1,.56-1.27,2.14,2.14,0,0,1,.91-.13h9.36L75.24,4l20.17,0a2.86,2.86,0,0,1,.92.1.94.94,0,0,1,.6,1.39c-.23.48-.5.94-.76,1.4l-2.41,4.43a1.45,1.45,0,0,0-.22.45.64.64,0,0,0,.35.21,46.91,46.91,0,0,1,7.52,4.12,47.71,47.71,0,0,1,9.36,8.24,46.74,46.74,0,0,1,7.3,11.27,47.52,47.52,0,0,1,4.1,25.11c0,.55-.13,1.09-.2,1.64a3.69,3.69,0,0,1-.11.45.91.91,0,0,1-.92.6.83.83,0,0,1-.84-.69,2.81,2.81,0,0,0-.55-1.2,53.3,53.3,0,0,0-27.21-21,50.8,50.8,0,0,0-8.41-2.13c-1.4-.23-2.82-.4-4.23-.54a.58.58,0,0,0-.68.38c-.88,1.64-1.79,3.28-2.69,4.92a1.37,1.37,0,0,1-.48.59.86.86,0,0,1-.54.12,2.49,2.49,0,0,0-.61,0,.87.87,0,0,1-.86-.45c-.13-.2-.24-.41-.36-.63-.82-1.5-1.66-3-2.46-4.51a.66.66,0,0,0-.75-.42,53.57,53.57,0,0,0-40,24,1.42,1.42,0,0,0-.3.74.89.89,0,0,1-.83.79.9.9,0,0,1-1-.66,3.56,3.56,0,0,1-.13-.65,47.83,47.83,0,0,1-.42-8.37,46.51,46.51,0,0,1,.66-6.23A47.5,47.5,0,0,1,43.18,20.39a48.7,48.7,0,0,1,8-5.87A45.36,45.36,0,0,1,56,12.08,1.07,1.07,0,0,0,56.5,11.82Z" fill="#040303"></path><path d="M65.91,5.92H84.05c.08.13,0,.19-.09.26a10.45,10.45,0,0,0-1.63,2.17,8.41,8.41,0,0,1-.74,1.06,3.62,3.62,0,0,0-.26.38.62.62,0,0,0,1,.72,10.51,10.51,0,0,0,.94-1.28,11.88,11.88,0,0,1,1.47-2A14.79,14.79,0,0,1,86,6.13a1,1,0,0,1,.67-.23h7.77l.21,0c-.42.89-.93,1.72-1.38,2.57s-1,1.75-1.43,2.62L90.38,13.7,89,16.27l-1.43,2.62c-.46.85-.93,1.71-1.39,2.54a.22.22,0,0,1-.25-.11,4.32,4.32,0,0,0-1.27-1.25c-.3-.19-.28-.23,0-.49a6.33,6.33,0,0,0,.62-.75.61.61,0,0,0-.28-.94.6.6,0,0,0-.7.17c-.2.22-.39.44-.6.64s-.28.22-.57,0a6.77,6.77,0,0,0-1.75-1c.77-.59,1.15-1.41,1.85-2a11.59,11.59,0,0,0,1.74-1.89.66.66,0,0,0,0-.93A.61.61,0,0,0,84,13c-.21.23-.39.48-.59.71A8.55,8.55,0,0,1,82,15a2.58,2.58,0,0,0-.58.65,6,6,0,0,1-.88,1,1,1,0,0,1-1.21.27,4.74,4.74,0,0,0-.84-.23c-.15,0-.19-.12-.14-.27a1.48,1.48,0,0,1,.29-.59,2.62,2.62,0,0,0,.5-.77,3.22,3.22,0,0,1,.46-.75,1.28,1.28,0,0,0,.16-.26.63.63,0,0,0-.21-.85.6.6,0,0,0-.83.14,4.13,4.13,0,0,0-.65,1,2.38,2.38,0,0,1-.49.78,1.71,1.71,0,0,0-.39.71c-.16.54-.29.61-.85.56h0c-.57-.06-.55-.06-.56-.62,0-1.35.18-2.7.14-4,0-.32-.07-.59-.4-.7a1.54,1.54,0,0,0-.95,0,.54.54,0,0,0-.41.58c0,.72,0,1.44.06,2.16s.07,1.51.1,2.26a.27.27,0,0,1-.25.32l-.25,0c-.69.1-.81,0-1-.62a1.42,1.42,0,0,0-.29-.54,3,3,0,0,1-.6-1,4.48,4.48,0,0,0-.6-.89.61.61,0,0,0-.78-.2.6.6,0,0,0-.32.74.46.46,0,0,0,.09.23c.46.54.64,1.26,1.13,1.78a.92.92,0,0,1,.13.21c.2.43.16.52-.29.65a3.55,3.55,0,0,0-.64.17,1,1,0,0,1-1.07-.23,1.68,1.68,0,0,1-.41-.39c-.75-1.09-1.87-1.85-2.68-2.89L66.11,13a.63.63,0,0,0-.91-.15.66.66,0,0,0-.15.88,1,1,0,0,0,.09.13,14.5,14.5,0,0,0,1.85,2,2,2,0,0,1,.35.3,8.58,8.58,0,0,0,1.38,1.54,8.45,8.45,0,0,0-1.86,1.1.24.24,0,0,1-.32,0,2.17,2.17,0,0,1-.41-.39,4.26,4.26,0,0,0-.35-.38A.59.59,0,0,0,65,18a.62.62,0,0,0-.13.83,4.92,4.92,0,0,0,.86,1c-.26.36-.69.47-1,.79l-.8.94L55.56,6.25A.44.44,0,0,1,55.48,6a1,1,0,0,1,.51,0h7.25a1.52,1.52,0,0,1,1,.38,9.55,9.55,0,0,1,2.4,2.85,15.45,15.45,0,0,0,1,1.33.59.59,0,0,0,.41.29.61.61,0,0,0,.61-.19.65.65,0,0,0,.09-.68,1.58,1.58,0,0,0-.24-.39A14.33,14.33,0,0,1,67.3,7.7a10.11,10.11,0,0,0-1.12-1.4A1,1,0,0,1,65.91,5.92Z" fill="#e66161"></path><path d="M94.79,21.34a2.68,2.68,0,0,1,1.06.75,7.43,7.43,0,0,0,.64.73,9.66,9.66,0,0,1,1.94,3.36,2.21,2.21,0,0,0,.18.42,19.45,19.45,0,0,1,1.26,3,9.6,9.6,0,0,1,.44,1.89,12.6,12.6,0,0,1,.28,2.45,31.81,31.81,0,0,1-.18,4.25,15.07,15.07,0,0,0-.26,2.14A13.74,13.74,0,0,1,99.86,42c0,.27-.09.28-.35.16L97.1,41l-.71-.31c-.15-.06-.18-.15-.19-.31a9.68,9.68,0,0,1,.28-1.61,11.19,11.19,0,0,0,.1-2.71c-.06-.59,0-1.2-.14-1.79a3.58,3.58,0,0,1-.08-.86,7.49,7.49,0,0,0-.87-3.71,10.88,10.88,0,0,1-.56-1.32,3.13,3.13,0,0,0-1.66-1.87,3.94,3.94,0,0,1-.68-.54c-.13-.1-.1-.21,0-.32.3-.51.47-1.07.78-1.57a13.92,13.92,0,0,0,1.26-2.46A.56.56,0,0,1,94.79,21.34Z" fill="#fba839"></path><path d="M109.34,48.46c-.43-.33-.83-.65-1.24-1s-.88-.66-1.33-1a.52.52,0,0,1-.25-.51c0-.38,0-.76,0-1.13a22.3,22.3,0,0,0-.19-2.71,2,2,0,0,0-.54-1.14,11,11,0,0,0-1.52-1.46,5.69,5.69,0,0,0-2.19-1.08c-.43-.11-.44-.13-.36-.57a10.21,10.21,0,0,0,.16-2,.81.81,0,0,1,.07-.49,16.41,16.41,0,0,0,3.29.24,13.1,13.1,0,0,1,1.44.28,1.07,1.07,0,0,1,.68.59,7,7,0,0,0,.81,1.12,2,2,0,0,1,.24.4l1.15,2.4a.42.42,0,0,1,.06.14,8,8,0,0,1,.53,2.5,9.74,9.74,0,0,1-.15,2.41c-.16.75-.23,1.52-.37,2.27A1.17,1.17,0,0,1,109.34,48.46Z" fill="#fba839"></path><path d="M99.39,25.11c.32,0,.56,0,.8,0a5.31,5.31,0,0,0,2.21-.77c.31-.18.61-.37.93-.54a2.38,2.38,0,0,0,1-.9l.88-1.46a2.7,2.7,0,0,1,.67.54c.51.46,1,.95,1.49,1.42a.54.54,0,0,1,.19.63,1.09,1.09,0,0,0-.06.36,1.64,1.64,0,0,1-.42,1.17c-.26.34-.49.71-.75,1a7.35,7.35,0,0,1-1.12,1,6.34,6.34,0,0,1-1.29.74,1.39,1.39,0,0,1-.6.11h-2.16c-.33,0-.37,0-.44-.37a3.59,3.59,0,0,0-.45-1.09A10.32,10.32,0,0,1,99.39,25.11Z" fill="#fba839"></path><path d="M111.14,32.68a6.63,6.63,0,0,0,1.39-2.84c1.27.86,5.81,10.22,6,12.42a3.26,3.26,0,0,1-.89-.16,9.15,9.15,0,0,0-1.88-.26c-.34,0-.37,0-.4-.32a22.38,22.38,0,0,0-1-4,16.57,16.57,0,0,0-1-2.15c-.13-.28-.27-.56-.42-.83A3.38,3.38,0,0,0,111.51,33,.64.64,0,0,1,111.14,32.68Z" fill="#fba839"></path><path d="M115.85,54.62l-.81-.86-2-2c-.24-.25-.24-.26,0-.51a6.09,6.09,0,0,1,2.23-1.7,5,5,0,0,1,1.84-.41c.69,0,1.37,0,2.06,0h.26c.69.06.7.07.8.76.14,1,.22,2,.28,3,0,.33,0,.34-.33.35s-.86,0-1.29,0a5.18,5.18,0,0,0-2.88,1.2A2.09,2.09,0,0,0,115.85,54.62Z" fill="#fba839"></path><path d="M86.06,37.48a.29.29,0,0,1,.08-.27,6.83,6.83,0,0,0,.93-1.34,3.91,3.91,0,0,0,.45-.86c.12-.3.27-.59.41-.89l.9-2,.12-.26c.27.06.42.29.64.4a1.84,1.84,0,0,1,1,1.33c.11.42.36.77.47,1.19a9.78,9.78,0,0,1,.17,1.79c0,.61,0,1.23,0,1.85,0,.34-.1.39-.42.3-1.49-.46-3-.84-4.52-1.16A.84.84,0,0,1,86.06,37.48Z" fill="#fba839"></path><path d="M55.22,21.34a.48.48,0,0,1,.2.3,13.28,13.28,0,0,0,1.26,2.46c.31.52.49,1.09.79,1.61.08.13.07.23,0,.31a4.57,4.57,0,0,1-.78.59A2.71,2.71,0,0,0,55.28,28c-.41.88-.8,1.78-1.17,2.68a6.14,6.14,0,0,0-.45,2.35c0,.73-.12,1.43-.18,2.15a14.4,14.4,0,0,0,.14,4,5.53,5.53,0,0,1,.21,1.16.3.3,0,0,1-.21.34c-1.06.45-2.1.93-3.13,1.44-.22.11-.31.07-.34-.19-.08-.83-.31-1.64-.36-2.48s-.22-1.66-.32-2.49a3.42,3.42,0,0,1,0-.46c0-.94,0-1.88,0-2.82a24.14,24.14,0,0,1,.36-2.69c.15-1,.65-1.95.86-2.95a1.43,1.43,0,0,1,.13-.28A20.71,20.71,0,0,0,52.08,25a6.73,6.73,0,0,1,1-1.67c.32-.38.67-.74,1-1.13A3,3,0,0,1,55.22,21.34Z" fill="#fba839"></path><path d="M39.83,43.13a12,12,0,0,1,.67-2.75c.32-.7.67-1.39,1-2.08a3,3,0,0,1,.48-.78,4.08,4.08,0,0,0,.6-.83,1.53,1.53,0,0,1,1.07-.8,8.62,8.62,0,0,1,2-.22,17.14,17.14,0,0,0,2.15-.16c.33,0,.33,0,.34.3s0,.45,0,.67a9.88,9.88,0,0,0,.15,1.63c0,.19,0,.3-.2.34l-.15,0a7.26,7.26,0,0,0-3.75,2.56,2.18,2.18,0,0,0-.55,1.31c-.09,1-.19,2-.18,3a2.44,2.44,0,0,0,0,.66.37.37,0,0,1-.14.41c-.86.6-1.7,1.22-2.51,1.88-.18.14-.27.07-.35-.1a3.58,3.58,0,0,1-.24-1.15c-.06-.5-.15-1-.24-1.47a8,8,0,0,1-.12-1.38C39.9,43.92,39.86,43.59,39.83,43.13Z" fill="#fba839"></path><path d="M44.84,21.4c.2.33.39.63.55,1A3.52,3.52,0,0,0,47.07,24a14.83,14.83,0,0,0,1.69.85,5.22,5.22,0,0,0,1.51.27.4.4,0,0,1,.31.06,6.74,6.74,0,0,1-.7,1.63,4,4,0,0,0-.55,1.32.31.31,0,0,1-.35.29c-.77,0-1.54,0-2.32,0a3,3,0,0,1-1.36-.54,8.39,8.39,0,0,1-1.35-1c-.35-.3-.51-.78-.84-1.1-.55-.55-.5-1.29-.66-1.95a.33.33,0,0,1,.12-.28C43.29,22.79,44,22.08,44.84,21.4Z" fill="#fba839"></path><path d="M37.46,29.77c.19.56.36,1.08.56,1.59a4.21,4.21,0,0,0,.85,1.32c0,.18-.2.21-.31.26A3.34,3.34,0,0,0,37,34.57c-.32.6-.61,1.22-.94,1.82a6.15,6.15,0,0,0-.38,1,25.61,25.61,0,0,0-.94,3.46,5,5,0,0,1-.1.76c0,.12-.08.23-.23.22a11.71,11.71,0,0,0-2.93.47C31.53,40.44,35.44,32.26,37.46,29.77Z" fill="#fba839"></path><path d="M34.17,54.64a5.46,5.46,0,0,0-2.05-1.21,3.76,3.76,0,0,0-1.42-.19h-.92c-.29,0-.34,0-.32-.32.07-.8.14-1.6.22-2.4,0-.31.07-.61.11-.92a.37.37,0,0,1,.36-.36,4.78,4.78,0,0,1,.76-.08c.43,0,.86,0,1.28,0a6.2,6.2,0,0,1,2.23.3,5,5,0,0,1,1.64.93,7.74,7.74,0,0,1,.91.9c.21.23.21.26,0,.46C36,52.66,35.1,53.61,34.17,54.64Z" fill="#fba839"></path><path d="M61.06,31.85l.68,1.52c.1.22.19.44.3.65a6.75,6.75,0,0,1,.46,1,3,3,0,0,0,.38.73,2.34,2.34,0,0,1,.41.7,1.14,1.14,0,0,0,.31.41,1.27,1.27,0,0,1,.38.53c-.07.13-.19.14-.3.16-1.46.3-2.9.68-4.33,1.1l-.24.07c-.15,0-.22,0-.26-.17a1.4,1.4,0,0,1-.05-.41c0-.92,0-1.84.09-2.77a3.15,3.15,0,0,1,.29-1.08,9.4,9.4,0,0,0,.44-1.15,1.15,1.15,0,0,1,.59-.74A8.94,8.94,0,0,1,61.06,31.85Z" fill="#fba839"></path><path d="M82.37,28.28c-.4-.4-.86-.68-1.26-1a3.75,3.75,0,0,0-1.56-.74c-.64-.15-1.26-.31-1.88-.51a5.43,5.43,0,0,0-.81-.09,13.93,13.93,0,0,0-2-.18c-.56,0-1.09.15-1.63.17a17,17,0,0,0-2.14.48,6.28,6.28,0,0,0-3.17,1.68l-.17.16c-.18,0-.2-.14-.26-.23-.9-1.64-1.79-3.28-2.69-4.91a.46.46,0,0,1,0-.6c.18-.2.34-.43.51-.64a2,2,0,0,1,.31-.34,25.36,25.36,0,0,1,2.9-2.29,16.88,16.88,0,0,1,1.74-.75,7.84,7.84,0,0,1,2.53-.63A8.45,8.45,0,0,0,74,17.65a7,7,0,0,1,2.85.12c.52.1,1.05.1,1.57.24.68.19,1.32.48,2,.71a8.46,8.46,0,0,1,2.34,1.37c.18.15.37.3.54.47a4.68,4.68,0,0,0,.86.73,2.21,2.21,0,0,1,.61.61c.13.18.27.36.41.53.26.32.27.33.08.67q-1.36,2.5-2.74,5A1.38,1.38,0,0,1,82.37,28.28Z" fill="#eedbd2"></path><path d="M75,35.05a9.07,9.07,0,0,1-1-.14,1.57,1.57,0,0,1-1-1.79,1.47,1.47,0,0,0,.09-.5c0-.85.63-1.24,1.3-1.56l0,0a1.32,1.32,0,0,1,1.25.06,2.19,2.19,0,0,1,1.09,1,.68.68,0,0,1,.08.34,2.15,2.15,0,0,0,.15.8.79.79,0,0,1,0,.69A1.56,1.56,0,0,1,75.62,35C75.42,35,75.21,35,75,35.05Z" fill="#eedbd2"></path><path d="M84.63,28l4.56-8.34a16.58,16.58,0,0,1,.37,1.77,5.16,5.16,0,0,0,.22,1.16,2.05,2.05,0,0,1,.11.6,8.59,8.59,0,0,0,.07,1,4.17,4.17,0,0,1-.45,2.23,1,1,0,0,1-.5.43,2,2,0,0,1-.68.23,1.56,1.56,0,0,0-.91.29.28.28,0,0,1-.19.07,3.75,3.75,0,0,0-1.28.31C85.54,27.82,85.11,27.88,84.63,28Z" fill="#8fbade"></path><path d="M84.37,36.59a6.35,6.35,0,0,1-.57-2.1,11.32,11.32,0,0,0-.09-1.43,1.09,1.09,0,0,1,0-.36c.1-.74.19-1.49.31-2.23a1.54,1.54,0,0,1,1.06-1.21,3.13,3.13,0,0,1,.74-.21,2.51,2.51,0,0,0,.93-.24.61.61,0,0,1,.35-.07,1.66,1.66,0,0,0,.79-.2A3.69,3.69,0,0,1,89,28.25c0,.17-.12.26-.2.36a13.06,13.06,0,0,0-1.7,3c-.28.64-.58,1.27-.88,1.91-.08.18-.19.36-.26.55A12.12,12.12,0,0,1,84.37,36.59Z" fill="#8fbade"></path><path d="M95.64,16.11a2.08,2.08,0,0,1-.41.64A4.59,4.59,0,0,0,94.46,18a21.38,21.38,0,0,1-1.15,2.17,8.72,8.72,0,0,0-.51,1.12,16.24,16.24,0,0,1-.8,1.55c-.17.33-.37.65-.56,1,0,.06,0,.17-.21.14a6.68,6.68,0,0,1,0-.78,3.15,3.15,0,0,0-.17-1,4,4,0,0,1-.15-.7c-.08-.78-.28-1.54-.42-2.31a2.23,2.23,0,0,1,0-1.06,3.81,3.81,0,0,0,.13-.45,1.31,1.31,0,0,1,.88-1,7.76,7.76,0,0,1,3-.58C94.88,16.12,95.24,16.11,95.64,16.11Z" fill="#8fbade"></path><path d="M83.09,37l-3.16-.39c.79-1.53,1.63-3,2.47-4.46A14,14,0,0,0,83.09,37Z" fill="#8fbade"></path><path d="M91.61,15.2l.85-1.56a.18.18,0,0,1,.26-.09,22.59,22.59,0,0,1,2.54,1.2.38.38,0,0,0,0,.08c-.61,0-1.22,0-1.82.06a3.53,3.53,0,0,0-1.76.43Z" fill="#8fbade"></path><path d="M65.67,36.55a3,3,0,0,1-.6-.76,9.78,9.78,0,0,1-1-1.71c-.3-.76-.71-1.48-1-2.23A24.8,24.8,0,0,0,61.9,29.6c-.25-.48-.65-.84-.94-1.35a3.5,3.5,0,0,1,1,.23,2,2,0,0,0,1,.26.63.63,0,0,1,.3.07,3,3,0,0,0,.93.25,2.78,2.78,0,0,1,1.06.36,1.54,1.54,0,0,1,.71.91,4.28,4.28,0,0,1,.17,1.12,1.8,1.8,0,0,0,0,.46,3.94,3.94,0,0,1,.07,1.37,12.34,12.34,0,0,1-.2,2.1A5,5,0,0,1,65.67,36.55Z" fill="#8fbade"></path><path d="M60.88,19.71,65.39,28c-.28.06-.48-.11-.7-.14-.39,0-.76-.22-1.13-.28-.61-.09-1.16-.39-1.76-.47a2.68,2.68,0,0,1-.73-.22,1.05,1.05,0,0,1-.65-.74c-.08-.36-.28-.68-.35-1.06a6.53,6.53,0,0,1,0-1.33,4.21,4.21,0,0,1,.18-1.36,7.57,7.57,0,0,0,.18-1.06c.1-.52.21-1,.31-1.55Z" fill="#8fbade"></path><path d="M54.34,16.1c.8,0,1.51,0,2.23.07a8.91,8.91,0,0,1,1.92.51,1.49,1.49,0,0,1,.95,1,3.9,3.9,0,0,1,0,2.22,11.23,11.23,0,0,0-.26,1.52.34.34,0,0,1,0,.1A9.35,9.35,0,0,0,58.79,24c-.18,0-.19-.15-.24-.25a22.31,22.31,0,0,1-1.09-2c-.47-1-1-2-1.56-3.06a11.62,11.62,0,0,0-1.4-2.38A2.31,2.31,0,0,1,54.34,16.1Z" fill="#8fbade"></path><path d="M67.59,32.09c.87,1.45,1.67,2.94,2.51,4.48L67,37a10.92,10.92,0,0,0,.5-2.4A15.49,15.49,0,0,0,67.59,32.09Z" fill="#8fbade"></path><path d="M58.31,15.26a9,9,0,0,0-3.53-.41c-.06-.13,0-.16.1-.2Q56,14.1,57.16,13.6c.22-.09.34-.09.45.13.23.46.49.9.73,1.35C58.37,15.13,58.38,15.18,58.31,15.26Z" fill="#8fbade"></path><path d="M108.74,25c.17,0,.24.16.33.25.8.92,1.57,1.86,2.32,2.82a.66.66,0,0,1,.12.66c-.17.48-.3,1-.45,1.47a3.87,3.87,0,0,1-1.13,1.86,12.86,12.86,0,0,1-3,2,4.72,4.72,0,0,1-2,.39,20.83,20.83,0,0,1-2.61-.19c-.33,0-.37-.09-.39-.36a23.56,23.56,0,0,0-.56-3.75.7.7,0,0,1,0-.35.65.65,0,0,1,.41-.06,12.89,12.89,0,0,1,1.39,0,3.73,3.73,0,0,0,2.26-.71,12.71,12.71,0,0,0,1.51-1.14,9,9,0,0,0,1.2-1.54A3.38,3.38,0,0,0,108.74,25Z" fill="#cd2256"></path><path d="M118.18,47.89c-.21,0-.41,0-.62,0a7.63,7.63,0,0,0-2.42.36,2.14,2.14,0,0,0-.52.22,7.8,7.8,0,0,0-2.33,1.75c-.39.45-.42.43-.86,0-.26-.23-.51-.46-.78-.68s-.27-.29-.12-.52a3.77,3.77,0,0,0,.5-1.76c.07-.54.17-1.08.26-1.62a4,4,0,0,0,.09-.92c0-.25.12-.37.32-.52a5.39,5.39,0,0,1,3-1c.25,0,.51-.07.76-.09a8.1,8.1,0,0,1,3.26.6.64.64,0,0,1,.44.51c.23,1.07.47,2.14.7,3.21,0,.05,0,.1,0,.15s0,.28-.24.27c-.5,0-1,0-1.49,0Z" fill="#cd2256"></path><path d="M94.89,40.1l-2.31-.82c-.16-.06-.19-.16-.16-.32a21.23,21.23,0,0,0,0-3.74A3.63,3.63,0,0,0,92,33.83a8.64,8.64,0,0,1-.43-1.1,2.4,2.4,0,0,0-1.08-1.38,7.91,7.91,0,0,1-.75-.54.24.24,0,0,1-.09-.35,2.65,2.65,0,0,1,.26-.39,13.46,13.46,0,0,0,1.53-2.48l.11-.24c.18-.3.22-.32.5-.08a2.63,2.63,0,0,0,.68.46,1.64,1.64,0,0,1,.83.87c.38.86.77,1.72,1.13,2.59a5.08,5.08,0,0,1,.36,2c0,.74.13,1.47.18,2.2a13.46,13.46,0,0,1-.09,3.53A6.59,6.59,0,0,0,94.89,40.1Z" fill="#cd2256"></path><path d="M99.86,23.84l-.55,0a1,1,0,0,1-.92-.61,2.33,2.33,0,0,0-.51-.7c-.35-.4-.7-.8-1-1.21a3.44,3.44,0,0,0-1.2-1c-.19-.1-.26-.2-.12-.4a3.75,3.75,0,0,0,.38-.78,5.72,5.72,0,0,1,.76-1.34,10.11,10.11,0,0,0,1-1.39c.18-.32.19-.32.51-.14a35.66,35.66,0,0,1,3.44,2.25c.73.54,1.45,1.1,2.17,1.64a.49.49,0,0,1,.22.65,8.16,8.16,0,0,1-.91,1.6.35.35,0,0,1-.11.1,10.43,10.43,0,0,1-2.52,1.26A4,4,0,0,1,99.86,23.84Z" fill="#cd2256"></path><path d="M111.43,42.79a12.7,12.7,0,0,0-1.27-4.11,20,20,0,0,0-2.33-3.59l2-1.31a.3.3,0,0,1,.34-.05,4,4,0,0,1,1.29.81,3,3,0,0,1,.41.59c.31.63.64,1.25,1,1.88a3.92,3.92,0,0,1,.28.77,21.08,21.08,0,0,1,.86,3.11c0,.29.08.57.13.86s0,.25-.2.27a9.25,9.25,0,0,0-1.79.47Z" fill="#cd2256"></path><path d="M105.22,45.39c-.14,0-.22-.07-.32-.13q-1.74-1.14-3.57-2.13c-.37-.2-.34-.2-.27-.6a17.89,17.89,0,0,0,.43-2.62.27.27,0,0,1,.08-.21,4.47,4.47,0,0,1,1.58.66,8.62,8.62,0,0,1,1.51,1.32,1.69,1.69,0,0,1,.46,1.1c.07.79.1,1.57.13,2.36A.32.32,0,0,1,105.22,45.39Z" fill="#cd2256"></path><path d="M120.32,60.23c-.14,0-.18-.14-.25-.23-.95-1.39-2-2.71-3-4-.29-.36-.28-.54.12-.78a4.34,4.34,0,0,1,2.16-.72h1c.19,0,.29.09.29.28,0,.74,0,1.48,0,2.21l-.06,1c0,.69-.08,1.37-.13,2.05A.17.17,0,0,1,120.32,60.23Z" fill="#cd2256"></path><path d="M41.23,24.86a7.35,7.35,0,0,0,1.71,2.77A7.75,7.75,0,0,0,45,29.2a3.91,3.91,0,0,0,2.22.5c.36,0,.72,0,1.08,0s.42,0,.37.45l-.06.3a17.38,17.38,0,0,0-.47,3.3c0,.35-.07.41-.41.46a13.35,13.35,0,0,1-3,.2,5.07,5.07,0,0,1-2.38-.74c-.58-.37-1.16-.74-1.72-1.14a3.75,3.75,0,0,1-1.53-1.94c-.18-.6-.38-1.2-.57-1.81a.71.71,0,0,1,.1-.72c.78-1,1.56-2,2.39-2.89C41.08,25.1,41.12,25,41.23,24.86Z" fill="#cd2256"></path><path d="M30.09,47.83a12.79,12.79,0,0,1,.27-1.48c.15-.67.31-1.34.44-2a.76.76,0,0,1,.55-.61,8,8,0,0,1,3.82-.51,9.43,9.43,0,0,1,2.3.49c.39.16.67.47,1,.66.1.05.1.17.11.27.09,1.18.37,2.33.51,3.5a2.27,2.27,0,0,0,.36.9.34.34,0,0,1-.08.49c-.37.31-.73.63-1.09.95-.12.11-.23.13-.34,0l-.25-.26a7,7,0,0,0-2.23-1.7A5.92,5.92,0,0,0,33,47.9c-.91,0-1.82,0-2.73,0A.26.26,0,0,1,30.09,47.83Z" fill="#cd2256"></path><path d="M55.14,40.1a20.55,20.55,0,0,1-.44-2.35,9.88,9.88,0,0,1,0-1.54c0-.15,0-.31,0-.46a6.15,6.15,0,0,1,.11-1.28A5,5,0,0,0,55,33.3a5.89,5.89,0,0,1,.71-3c.22-.4.37-.85.55-1.27a3.45,3.45,0,0,1,.48-.91,1.33,1.33,0,0,1,.38-.33A3.52,3.52,0,0,0,58,27.2c.15-.16.28-.08.36.08.2.4.45.77.63,1.18a7.37,7.37,0,0,0,.91,1.43l.25.32c.3.42.3.42-.13.74-.25.18-.49.37-.75.54a1.85,1.85,0,0,0-.67.77c-.27.67-.52,1.34-.78,2a6.94,6.94,0,0,0-.28,2.07c0,.67,0,1.34,0,2a2.1,2.1,0,0,0,.09.61c0,.12,0,.24-.11.29Z" fill="#cd2256"></path><path d="M50.15,23.84a4.18,4.18,0,0,1-1.88-.61,6.17,6.17,0,0,0-.7-.42,1.89,1.89,0,0,1-1-.9A6.11,6.11,0,0,1,46,20.77a.5.5,0,0,1,.19-.58,47.94,47.94,0,0,1,5.61-3.89c.35-.2.37-.2.56.13a10.43,10.43,0,0,0,1,1.4,5.51,5.51,0,0,1,.76,1.33c.11.26.23.5.35.75s.14.26-.13.43l-.3.19a2.35,2.35,0,0,0-.71.58L52,22.67a3.48,3.48,0,0,0-.4.6.79.79,0,0,1-.66.49C50.66,23.8,50.41,23.82,50.15,23.84Z" fill="#cd2256"></path><path d="M38.61,42.77A11,11,0,0,0,36.14,42c-.22,0-.23-.16-.22-.33a11.43,11.43,0,0,1,.41-2.16c.15-.51.33-1,.47-1.52A13,13,0,0,1,37.71,36c.13-.3.29-.58.45-.87a2,2,0,0,1,1-1l.18-.09c.7-.37.69-.37,1.32.06l1.53,1a20,20,0,0,0-2.33,3.62A12.2,12.2,0,0,0,38.61,42.77Z" fill="#cd2256"></path><path d="M44.78,45.37v-1c0-.64.12-1.26.17-1.89a1,1,0,0,1,.22-.56,6.89,6.89,0,0,1,2.56-2l.1,0c.83-.29.71-.15.75.46A15.42,15.42,0,0,0,49,42.46c.09.45.11.46-.29.68-1.2.67-2.38,1.37-3.53,2.11C45,45.31,45,45.42,44.78,45.37Z" fill="#cd2256"></path><path d="M29.66,60.31a40.1,40.1,0,0,1-.23-5.46c0-.33,0-.34.36-.35a6.36,6.36,0,0,1,1.69.1,4.42,4.42,0,0,1,1.48.68c.29.22.3.41.07.69q-1.71,2-3.23,4.25S29.75,60.25,29.66,60.31Z" fill="#cd2256"></path><path d="M63.42,10.15a.6.6,0,0,1-.62.67A.87.87,0,0,1,62,10.4,2.89,2.89,0,0,0,60.8,9.22,4.74,4.74,0,0,1,59.44,7.9.61.61,0,0,1,59.53,7a.6.6,0,0,1,.87,0c.21.19.35.42.55.62a7.94,7.94,0,0,0,1.15.85,1.61,1.61,0,0,1,.58.58,1.42,1.42,0,0,0,.5.56A.46.46,0,0,1,63.42,10.15Z" fill="#070303"></path><path d="M87.23,10.83a.64.64,0,0,1-.6-.41.52.52,0,0,1,.14-.66,3.26,3.26,0,0,0,.72-.85,2.12,2.12,0,0,1,.69-.54,4.78,4.78,0,0,0,1.27-1.1A1.48,1.48,0,0,1,89.7,7a.6.6,0,0,1,.84,0,.66.66,0,0,1,.07.8,3.51,3.51,0,0,1-.46.56,5,5,0,0,1-1.27,1,1.79,1.79,0,0,0-.77.88A1,1,0,0,1,87.23,10.83Z" fill="#070303"></path><path d="M86.78,16.22a.6.6,0,0,1-.59-.34.59.59,0,0,1,.08-.68A13.83,13.83,0,0,0,88,13a.6.6,0,0,1,.84-.23.63.63,0,0,1,.24.89,5.69,5.69,0,0,1-.33.52c-.38.5-.76,1-1.15,1.5A1.15,1.15,0,0,1,86.78,16.22Z" fill="#070303"></path><path d="M63.91,15.72a.63.63,0,0,1-.88.45,1.18,1.18,0,0,1-.53-.38c-.47-.6-1-1.17-1.37-1.8-.07-.12-.14-.24-.2-.36a.6.6,0,0,1,.2-.77.59.59,0,0,1,.79,0,1.93,1.93,0,0,1,.22.28,10.24,10.24,0,0,0,1.57,2A.71.71,0,0,1,63.91,15.72Z" fill="#070303"></path><path d="M75.12,9.08A1.09,1.09,0,0,1,74.6,9a.64.64,0,0,1-.39-.6.59.59,0,0,1,.39-.55,1,1,0,0,1,.7,0,.62.62,0,0,1,0,1.23A.55.55,0,0,1,75.12,9.08Z" fill="#070303"></path><path d="M80.91,12a.66.66,0,0,1-.64.62.64.64,0,0,1-.61-.69.64.64,0,0,1,.65-.59A.67.67,0,0,1,80.91,12Z" fill="#070303"></path><path d="M85.61,17.66a.6.6,0,0,1-.65-.58.66.66,0,0,1,.65-.66.69.69,0,0,1,.63.63A.64.64,0,0,1,85.61,17.66Z" fill="#070303"></path><path d="M69.74,12.58a.65.65,0,0,1,0-1.3.73.73,0,0,1,.64.63A.73.73,0,0,1,69.74,12.58Z" fill="#070303"></path><path d="M79.5,8.29a.58.58,0,0,1-.61-.61.64.64,0,0,1,.63-.62.68.68,0,0,1,.65.66A.63.63,0,0,1,79.5,8.29Z" fill="#070303"></path><path d="M71.13,7.68a.59.59,0,0,1-.61.61.57.57,0,0,1-.64-.58.63.63,0,1,1,1.25,0Z" fill="#070303"></path><path d="M64.43,17.66a.59.59,0,0,1-.62-.6.63.63,0,1,1,1.25,0A.61.61,0,0,1,64.43,17.66Z" fill="#070303"></path><path d="M64.2,12.41a.58.58,0,0,1-.6-.62.59.59,0,0,1,.59-.63.63.63,0,1,1,0,1.25Z" fill="#070303"></path><path d="M85.83,12.41a.6.6,0,0,1-.62-.6.61.61,0,0,1,.58-.65.63.63,0,1,1,0,1.25Z" fill="#070303"></path><path d="M64.87,32.38a.62.62,0,0,1-.63-.61.63.63,0,0,1,.65-.64.63.63,0,0,1,0,1.25Z" fill="#070303"></path><path d="M88.43,24.75a.63.63,0,0,1-.61.63.64.64,0,0,1-.65-.65.65.65,0,0,1,.64-.61A.64.64,0,0,1,88.43,24.75Z" fill="#070303"></path><path d="M62.24,25.38a.65.65,0,0,1-.66-.63.67.67,0,0,1,.62-.63.68.68,0,0,1,.67.64A.67.67,0,0,1,62.24,25.38Z" fill="#070303"></path><path d="M85.76,31.74a.57.57,0,0,1-.58.64.61.61,0,0,1-.65-.63.62.62,0,0,1,.62-.62A.59.59,0,0,1,85.76,31.74Z" fill="#070303"></path><path d="M92.45,18.74a.59.59,0,0,1-.6.63.62.62,0,0,1-.63-.66.61.61,0,0,1,.64-.59A.58.58,0,0,1,92.45,18.74Z" fill="#070303"></path><path d="M58.79,18.72a.6.6,0,0,1-.58.65.63.63,0,0,1-.65-.64.61.61,0,0,1,.62-.61A.56.56,0,0,1,58.79,18.72Z" fill="#070303"></path><path d="M75,105.51c2.27,0,4.53.09,6.78.3a72.94,72.94,0,0,1,10.3,1.66A66.42,66.42,0,0,1,102.86,111a56.89,56.89,0,0,1,10.15,5.5,38.74,38.74,0,0,1,4.18,3.26c.52.47,1,.93,1.55,1.42.29.29.68.46,1,.77s.33.32.07.7a55.14,55.14,0,0,1-22,18.33,53.39,53.39,0,0,1-15,4.46,54.34,54.34,0,0,1-12.42.37,53.15,53.15,0,0,1-15.17-3.55,55.58,55.58,0,0,1-24.94-19.56l-.17-.26a.2.2,0,0,1,0-.31,4.56,4.56,0,0,1,.85-.73,1.31,1.31,0,0,0,.33-.25,44.37,44.37,0,0,1,8.41-6.4,62.62,62.62,0,0,1,16-6.69,71,71,0,0,1,9-1.82,76.32,76.32,0,0,1,8.81-.68C74.07,105.5,74.55,105.51,75,105.51Z" fill="#030202"></path><path d="M75,135.65a9.85,9.85,0,0,1-1.21-1.81,26.82,26.82,0,0,1-2.68-7.2c-.5-2.2-.88-4.43-1.24-6.66-.28-1.7-.53-3.41-.68-5.13-.08-.8-.14-1.6-.16-2.41s-.1-1.88-.14-2.82a8.45,8.45,0,0,1,.28-1.87.2.2,0,0,1,.17-.17,2.25,2.25,0,0,1,.36-.06c1.89-.13,3.8-.19,5.7-.14l.11,0a1.15,1.15,0,0,1-.25.6c-.24.42-.44.86-.64,1.29a2.59,2.59,0,0,0-.24,1.45,2.9,2.9,0,0,1,0,.51,3.54,3.54,0,0,0,.54,2.06,9.64,9.64,0,0,1,.68,1.66,1.61,1.61,0,0,1-.56,1.65c-.32.38-.67.73-1,1.12a3.16,3.16,0,0,0-.55,2.72c.11.56.33,1.08.43,1.64a1.93,1.93,0,0,0,.2.52c.22.43.44.86.68,1.27a3,3,0,0,1-.07,3.17,3.81,3.81,0,0,0-.55,2,3.3,3.3,0,0,0,.32,1.08c.06.14.25.12.32,0a1,1,0,0,0,.07-.29,3.94,3.94,0,0,1,.88-2.1,4.44,4.44,0,0,0,.88-3.53,3.48,3.48,0,0,0-.29-.82c-.21-.47-.48-.91-.65-1.39a8.57,8.57,0,0,1-.51-2.24,1.05,1.05,0,0,1,.28-.8c.29-.36.64-.67,1-1a4.54,4.54,0,0,0,1.26-2.37,3.27,3.27,0,0,0-.21-1.61,17.39,17.39,0,0,0-.73-1.8,2.62,2.62,0,0,1,0-2.33c.27-.56.57-1.1.85-1.64.06-.11.12-.22.17-.33.2-.48.2-.5.72-.46s1.16.08,1.74.11.51.09.61.52a7,7,0,0,1,.15,2.65,6.54,6.54,0,0,0,0,.77q-.06,1.85-.24,3.69c-.12,1.19-.27,2.37-.46,3.56s-.41,2.67-.65,4a45,45,0,0,1-1.85,7.57,22.53,22.53,0,0,1-2.28,4.65C75.39,135.16,75.22,135.37,75,135.65Z" fill="#fca93a"></path><path d="M62.31,130.82l-.54-1.48c-.8-2.21-1.69-4.38-2.39-6.62a46.14,46.14,0,0,1-1.66-7.25,35.2,35.2,0,0,1-.37-5.53c0-.44,0-.45.43-.55.69-.17,1.39-.32,2.16-.5-.18.55-.29,1-.48,1.47a3.16,3.16,0,0,0,.12,2.78c.15.29.26.59.4.88a4.81,4.81,0,0,0,.92,1.18,1.79,1.79,0,0,1,.48,1.64,3,3,0,0,1-.44,1.18,3.08,3.08,0,0,0-.64,1.92,3.38,3.38,0,0,0,.2.89,8.16,8.16,0,0,0,1.37,2.22,5.35,5.35,0,0,1,.49.78l.15.27c.07.11.14.2.29.18s.15-.12.19-.22a1.81,1.81,0,0,0-.09-1.44c-.16-.34-.35-.67-.52-1-.07-.15-.13-.31-.2-.47a1.71,1.71,0,0,1,.28-2,4.41,4.41,0,0,0,.83-3.54,2.66,2.66,0,0,0-.8-1.53,5.73,5.73,0,0,1-1.12-1.76,1.48,1.48,0,0,1,0-1.15,15,15,0,0,1,1.14-2.51c.1-.16.17-.29.37-.32,1.4-.2,2.8-.44,4.22-.55.31,0,.29,0,.35.28a7.41,7.41,0,0,1,0,2.35c-.09.7-.16,1.4-.19,2.1A33.72,33.72,0,0,1,66,120c-.68,2.33-1.34,4.67-2.15,7-.41,1.16-.85,2.31-1.29,3.46C62.51,130.59,62.49,130.75,62.31,130.82Z" fill="#fca93a"></path><path d="M90.09,109a.27.27,0,0,1,.21,0l2,.47c.34.09.35.1.35.45a34,34,0,0,1-.1,3.49,45.9,45.9,0,0,1-1.59,8.3c-.6,2.11-1.39,4.15-2.16,6.21l-1,2.7a.54.54,0,0,1-.17.27,11.17,11.17,0,0,1-.65-1.56,102.38,102.38,0,0,1-3.46-11.22,23.26,23.26,0,0,1-.58-3.8c-.14-1.66-.24-3.31-.46-5a7.54,7.54,0,0,1,.08-1.33c0-.17.12-.21.29-.19.49.06,1,.09,1.48.16.9.12,1.79.27,2.69.39a.54.54,0,0,1,.5.36,5,5,0,0,0,.39.72,17.1,17.1,0,0,1,.83,2,1.15,1.15,0,0,1-.12.89,5,5,0,0,1-1.09,1.73,3.29,3.29,0,0,0-.83,3c0,.25.08.5.13.75a2.62,2.62,0,0,0,.53,1.16c.13.16.24.33.37.49a1.48,1.48,0,0,1,.2,1.41,9.26,9.26,0,0,1-.78,1.73A1.93,1.93,0,0,0,87,124c0,.11.07.24.23.24a.25.25,0,0,0,.24-.16c.4-.92,1.18-1.59,1.63-2.48a4.68,4.68,0,0,0,.58-1.63,2.25,2.25,0,0,0-.08-.86,5,5,0,0,0-.65-1.28,2.64,2.64,0,0,1-.33-1.92,1.28,1.28,0,0,1,.39-.66c.2-.23.43-.45.61-.69a7,7,0,0,0,1.11-2.41,2.64,2.64,0,0,0-.12-1.57C90.45,110.07,90.27,109.52,90.09,109Z" fill="#fca93a"></path><path d="M49.31,112.09A5.24,5.24,0,0,0,50.58,115a.91.91,0,0,1,.15.94,4.22,4.22,0,0,1-.43.88,6.45,6.45,0,0,0-.29.59,2.65,2.65,0,0,0,.2,2.37,21.14,21.14,0,0,1,1.23,2.36c.06.15.12.3.31.29s.23-.18.29-.33a2,2,0,0,0,0-1.4c-.17-.49-.32-1-.51-1.46a1,1,0,0,1,.09-1c.1-.16.21-.31.32-.47a4.69,4.69,0,0,0,.87-2.27,2.05,2.05,0,0,0-.41-1.4c-.25-.37-.48-.75-.71-1.13a1.07,1.07,0,0,1-.16-1,.27.27,0,0,0,0-.15c-.07-.46.19-.62.58-.74,1.06-.32,2.11-.69,3.19-1a.81.81,0,0,1,.46-.06,54.19,54.19,0,0,1-1.41,8.7c-.44-.24-.9-.47-1.36-.09a1.23,1.23,0,0,0-.18,1.21.88.88,0,0,0,1.06.49c-.32,1.71-2.1,6.6-2.91,7.37a3,3,0,0,1-.29-.81c-.73-2.26-1.46-4.53-2.1-6.82a25,25,0,0,1-.91-4.36,9.48,9.48,0,0,1-.06-2.66c0-.17.06-.3.23-.36A11.38,11.38,0,0,1,49.31,112.09Z" fill="#fca93a"></path><path d="M100.72,112.1a10.39,10.39,0,0,1,1.43.55c.21.09.24.26.25.46a15.66,15.66,0,0,1-.25,3.68,54.73,54.73,0,0,1-1.8,6.79c-.4,1.29-.82,2.57-1.23,3.86,0,.08,0,.17-.12.21-.89-1-2.44-5.32-2.9-7.34.14-.09.28,0,.44,0a1,1,0,0,0,.72-.95c0-.89-.51-1.14-1.3-.87-.11,0-.17.17-.33.16a16.23,16.23,0,0,1-.5-2,35.89,35.89,0,0,1-.55-3.7c-.11-.94-.23-1.87-.35-2.8,0-.21,0-.26.21-.22l1,.28,2.69.85a.35.35,0,0,1,.29.36,2.13,2.13,0,0,1-.45,2.05c-.14.22-.28.43-.43.64a2,2,0,0,0-.32,1.57,5,5,0,0,0,.86,2c.09.12.17.25.26.38a1.16,1.16,0,0,1,.14,1.08c-.15.47-.31.94-.47,1.41a2.1,2.1,0,0,0,0,1.5c0,.15.11.31.31.29s.23-.13.28-.26a18.4,18.4,0,0,1,1.24-2.42,3.71,3.71,0,0,0,.39-1.32,2.64,2.64,0,0,0-.4-1.41c-.15-.29-.33-.57-.46-.87a1.08,1.08,0,0,1,.13-1.23,5.25,5.25,0,0,0,1.1-2.07C100.64,112.59,100.67,112.37,100.72,112.1Z" fill="#fca93a"></path><path d="M40.56,116.45c-.05.32-.16.62-.22.94a4.09,4.09,0,0,0,0,1.48,2.19,2.19,0,0,0,.65,1.2,10.43,10.43,0,0,1,.92,1,1,1,0,0,1,.23.86c0,.17-.06.32.11.4a.38.38,0,0,0,.43-.07,1.56,1.56,0,0,0,.51-1.89,2.82,2.82,0,0,0-.58-1,1.64,1.64,0,0,1-.21-2,8.52,8.52,0,0,0,.73-2.13.63.63,0,0,1,.36-.52c.79-.36,1.57-.76,2.36-1.14a.26.26,0,0,1,.19,0,21.27,21.27,0,0,1-.55,3.59,1.83,1.83,0,0,0-1.24-.14.72.72,0,0,0-.55.47,1.06,1.06,0,0,0,1,1.52c.12,0,.24-.06.38,0a23.41,23.41,0,0,1-3.05,7c-.17,0-.19-.16-.23-.24-.4-.84-.78-1.68-1.19-2.51-.1-.21-.08-.31.13-.45a1,1,0,0,0,.38-1c-.08-.48-.62-.77-1-.44a.49.49,0,0,1-.33.16,2.35,2.35,0,0,1-.3-.64,19.32,19.32,0,0,1-.81-2.32c0-.1-.06-.2-.08-.3-.1-.55-.07-.64.38-.93s.81-.51,1.22-.76c.08,0,.17-.13.28-.07Z" fill="#fca93a"></path><path d="M109.53,116.44a14.14,14.14,0,0,1,1.66,1,.36.36,0,0,1,.17.34,2.84,2.84,0,0,1-.06.51,19.38,19.38,0,0,1-1,2.86c-.15.34-.17.35-.47.16a.54.54,0,0,0-.66,0,.74.74,0,0,0-.34.71,1.05,1.05,0,0,0,.51.9.58.58,0,0,1,.13.11l-1.42,3a20.33,20.33,0,0,1-3.15-7c.13-.13.29,0,.43,0a.94.94,0,0,0,.92-.53,1.07,1.07,0,0,0-.08-1.21,1.15,1.15,0,0,0-1.18-.27,2.48,2.48,0,0,0-.51.19c-.16-.6-.23-1.21-.33-1.81s-.18-1.18-.26-1.75c.11-.12.2,0,.28,0l2.36,1.15a.52.52,0,0,1,.31.43,6.82,6.82,0,0,0,.77,2.22,2.34,2.34,0,0,1,.15,1.41.8.8,0,0,1-.28.47,3.78,3.78,0,0,0-.65,1,1.59,1.59,0,0,0,.39,1.87.54.54,0,0,0,.36.18.24.24,0,0,0,.29-.22.38.38,0,0,0,0-.15c-.13-.63.27-1,.64-1.43a.54.54,0,0,1,.12-.09,2.93,2.93,0,0,0,1.06-2.94c0-.33-.14-.66-.22-1C109.47,116.46,109.49,116.44,109.53,116.44Z" fill="#fca93a"></path><path d="M76,136.88a1.28,1.28,0,0,1,.27-.74c0-.06.07-.12.11-.17a10.35,10.35,0,0,0,1.78-3.34c.74-1.89,1.5-3.78,2.08-5.74a20.26,20.26,0,0,0,.69-2.89.94.94,0,0,1,.06-.24.59.59,0,0,1,.6-.39.57.57,0,0,1,.5.57,3.83,3.83,0,0,1-.1.82,40.72,40.72,0,0,1-2,6.55c-.36.91-.71,1.82-1.09,2.72a8.59,8.59,0,0,1-1.15,2,2.78,2.78,0,0,1-.75.7A1.07,1.07,0,0,1,76,136.88Z" fill="#fca93a"></path><path d="M74,136.86a.88.88,0,0,1-.79-.06A3.28,3.28,0,0,1,72,135.62a10,10,0,0,1-.93-1.77c-.88-2.2-1.78-4.38-2.44-6.66a22.82,22.82,0,0,1-.67-2.74,1.75,1.75,0,0,1,0-.56.57.57,0,0,1,.49-.52.61.61,0,0,1,.61.39,1.36,1.36,0,0,1,.07.35,25.43,25.43,0,0,0,1.1,4.11c.61,1.89,1.39,3.72,2.11,5.57a6.88,6.88,0,0,0,1.14,1.94,5.74,5.74,0,0,1,.36.5A.89.89,0,0,1,74,136.86Z" fill="#fca93a"></path><path d="M98.8,129.32a.85.85,0,0,1-.57.83.76.76,0,0,1-.89-.34,4.9,4.9,0,0,1-.32-.65,1,1,0,0,0-.12-.28c-.49-.61-.76-1.36-1.19-2a5.81,5.81,0,0,1-.6-1.29,9.43,9.43,0,0,1-.65-2.32c0-.14,0-.27.1-.36s.29,0,.42.07a1.4,1.4,0,0,1,.33.39c.37.71.76,1.41,1.13,2.12a2.08,2.08,0,0,0,.35.57,2.51,2.51,0,0,1,.57.9,1.53,1.53,0,0,0,.44.56,5.42,5.42,0,0,1,.92,1.53A.8.8,0,0,1,98.8,129.32Z" fill="#fca93a"></path><path d="M86.05,132.29a.78.78,0,0,1-.48-.4,8.51,8.51,0,0,1-1.13-2.4c-.44-1.65-.85-3.31-1.27-5a1,1,0,0,1,.07-.74.18.18,0,0,1,.25-.1.9.9,0,0,1,.55.5,13.55,13.55,0,0,1,.89,2.4,24.88,24.88,0,0,0,1,3.39,10.25,10.25,0,0,0,.63,1.29,1.22,1.22,0,0,1,.16.37A.57.57,0,0,1,86.05,132.29Z" fill="#fca93a"></path><path d="M51.24,129.24a1.6,1.6,0,0,1,.07-.28,5.47,5.47,0,0,1,.93-1.47,2.18,2.18,0,0,0,.54-.8.85.85,0,0,1,.17-.31,7.4,7.4,0,0,0,1.13-1.89l.68-1.21a1,1,0,0,1,.39-.39.29.29,0,0,1,.34,0,.24.24,0,0,1,.09.27c-.13.41-.1.85-.26,1.25s-.36,1.11-.59,1.64c0,0,0,0,0,0a21.78,21.78,0,0,1-1.36,2.4,2.76,2.76,0,0,0-.38.72c-.09.18-.17.38-.27.55a.77.77,0,0,1-.93.36A.79.79,0,0,1,51.24,129.24Z" fill="#fca93a"></path><path d="M66.92,124.22l-.21.89c-.35,1.36-.69,2.72-1,4.08a9.34,9.34,0,0,1-1.17,2.62,1.68,1.68,0,0,1-.3.35.5.5,0,0,1-.62.07.52.52,0,0,1-.28-.56.75.75,0,0,1,.09-.29A15.55,15.55,0,0,0,65,127a12.41,12.41,0,0,1,1-2.76,1,1,0,0,1,.47-.52c.26-.11.31-.1.41.19C66.87,124,66.89,124.1,66.92,124.22Z" fill="#fca93a"></path><path d="M113,118.74a15.42,15.42,0,0,1,1.31,1,.38.38,0,0,1,.14.36c0,.86.25,1.69.32,2.54a.34.34,0,0,0,.28.33.34.34,0,0,0,.35-.17,3.81,3.81,0,0,0,.57-1.14c0-.12,0-.27.2-.36a10.91,10.91,0,0,1,1.26,1.1c.15.13,0,.25,0,.36-.44.57-.87,1.14-1.33,1.7a6.14,6.14,0,0,1-.77.88,3.2,3.2,0,0,1-.75-1.12c-.23-.58-.39-1.17-.63-1.74a25.64,25.64,0,0,1-.88-3.31A1.85,1.85,0,0,1,113,118.74Z" fill="#fca93a"></path><path d="M36.91,118.79a.41.41,0,0,1,0,.35,23,23,0,0,1-.79,3.07c-.18.45-.31.91-.46,1.36a3.87,3.87,0,0,1-1,1.73c-.24-.28-.48-.57-.71-.86l-1.34-1.69c-.14-.19-.15-.33,0-.48.39-.34.77-.69,1.13-1,.19,0,.18.17.22.28a4.48,4.48,0,0,0,.54,1.15c.1.16.22.29.42.24s.25-.18.27-.38c.09-.83.29-1.64.3-2.48a.39.39,0,0,1,.16-.36A13.34,13.34,0,0,1,36.91,118.79Z" fill="#fca93a"></path><path d="M92.32,125a4.36,4.36,0,0,1-.4,1.22c-.38.81-.6,1.67-.94,2.49a13,13,0,0,1-1.36,2.81A1.24,1.24,0,0,1,89,132c-.31.1-.47,0-.42-.34a3.6,3.6,0,0,1,.34-1,17.4,17.4,0,0,0,1.19-2.94c.24-.81.6-1.56.89-2.35.07-.2.12-.42.19-.63a.59.59,0,0,1,.63-.43A.61.61,0,0,1,92.32,125Z" fill="#fca93a"></path><path d="M61.45,131.66c0,.3-.13.41-.39.34a1,1,0,0,1-.57-.41,8.41,8.41,0,0,1-.93-1.65c-.39-1-.77-1.93-1.09-2.93-.16-.5-.44-1-.6-1.46a3.7,3.7,0,0,1-.14-.55.57.57,0,1,1,1.11-.23c.06.28.18.55.26.82a.91.91,0,0,0,.1.29,10.53,10.53,0,0,1,.74,2,20,20,0,0,0,1.16,2.79A4.82,4.82,0,0,1,61.45,131.66Z" fill="#fca93a"></path><path d="M50.12,128.36c0,.2,0,.33-.18.4a.34.34,0,0,1-.42-.06.23.23,0,0,1-.07-.07,8.79,8.79,0,0,1-.85-1.27,22.86,22.86,0,0,1-1-2.53c-.2-.61-.3-1.26-.44-1.89a1,1,0,0,1,.08-.6.53.53,0,0,1,.57-.34.49.49,0,0,1,.44.44c.05.5.24,1,.33,1.45.17.84.57,1.6.8,2.42a3.87,3.87,0,0,0,.54,1.21C50.12,127.78,50,128.13,50.12,128.36Z" fill="#fca93a"></path><path d="M99.94,128.18a1.81,1.81,0,0,1,.35-1,5.29,5.29,0,0,0,.49-1.29c.14-.42.32-.83.45-1.25.2-.63.33-1.29.49-1.94,0-.09,0-.2,0-.3a.5.5,0,0,1,.47-.4.55.55,0,0,1,.55.38,1.24,1.24,0,0,1,0,.76,15,15,0,0,1-.69,2.46c-.24.49-.4,1-.59,1.53a1.79,1.79,0,0,1-.19.42,7,7,0,0,0-.7,1l-.14.15a.37.37,0,0,1-.39.07.33.33,0,0,1-.18-.34C99.93,128.39,99.93,128.34,99.94,128.18Z" fill="#fca93a"></path><path d="M38.13,121.63a.65.65,0,0,1,.55.33,1.89,1.89,0,0,1,.13.33,6.24,6.24,0,0,0,.72,1.52.59.59,0,0,1,.13.23,12.06,12.06,0,0,0,1.13,2.24c.07.12.12.24.18.36s.1.19,0,.29a.26.26,0,0,1-.28.07,1.71,1.71,0,0,1-.86-.43A4.92,4.92,0,0,1,38.69,125a2.76,2.76,0,0,0-.36-.68,6,6,0,0,1-.79-1.77A.65.65,0,0,1,38.13,121.63Z" fill="#fca93a"></path><path d="M112.52,122.35a1,1,0,0,1,0,.21,7.66,7.66,0,0,1-.79,1.72,3,3,0,0,0-.36.68,4.66,4.66,0,0,1-1.24,1.68,1.5,1.5,0,0,1-.78.35c-.26.05-.37-.08-.27-.31a5.68,5.68,0,0,1,.28-.55,16.48,16.48,0,0,0,1-2c.23-.58.64-1.09.82-1.7a3.75,3.75,0,0,1,.16-.43.62.62,0,0,1,.73-.33A.64.64,0,0,1,112.52,122.35Z" fill="#fca93a"></path><path d="M46.52,121.07a8.55,8.55,0,0,1-.45,1.94,16.61,16.61,0,0,0-.92,2.93,2,2,0,0,1-.24.62.6.6,0,0,1-.82.3.57.57,0,0,1-.25-.83c.27-.56.34-1.18.58-1.75A13.73,13.73,0,0,1,45,123l.9-1.73a2.46,2.46,0,0,1,.22-.34.25.25,0,0,1,.31-.12C46.56,120.82,46.54,121,46.52,121.07Z" fill="#fca93a"></path><path d="M106.25,126.3a.58.58,0,0,1-.38.59.59.59,0,0,1-.65-.18,1.45,1.45,0,0,1-.31-.65,23.85,23.85,0,0,0-1.11-3.51,10.25,10.25,0,0,1-.31-1.56.17.17,0,0,1,.09-.21.23.23,0,0,1,.24,0,.85.85,0,0,1,.28.37,24.61,24.61,0,0,1,1.66,3.52,10.75,10.75,0,0,0,.46,1.46A.36.36,0,0,1,106.25,126.3Z" fill="#fca93a"></path><path d="M56.37,118.13c0-.34.1-.54.36-.59a.46.46,0,0,1,.56.46c0,.88.34,1.71.44,2.58a.32.32,0,0,1-.15.35c-.17.09-.3,0-.41-.12a1,1,0,0,1-.16-.26A7.06,7.06,0,0,1,56.37,118.13Z" fill="#fca93a"></path><path d="M93.66,118.24A8.47,8.47,0,0,1,93,120.6a.41.41,0,0,1,0,.09c-.11.15-.23.33-.45.25s-.2-.28-.17-.47a8.1,8.1,0,0,1,.13-.86,7.33,7.33,0,0,0,.26-1.46c0-.44.24-.65.53-.62S93.68,117.79,93.66,118.24Z" fill="#fca93a"></path><path d="M57.84,122.11a.68.68,0,0,1,.61.65.66.66,0,0,1-.68.57.6.6,0,0,1-.55-.62A.62.62,0,0,1,57.84,122.11Z" fill="#fca93a"></path><path d="M91.59,122.7a.66.66,0,0,1,.65-.59.72.72,0,0,1,.59.66.65.65,0,0,1-.63.56A.63.63,0,0,1,91.59,122.7Z" fill="#fca93a"></path><path d="M82.45,119.27c0,.34-.17.56-.46.57a.55.55,0,0,1-.58-.52.53.53,0,0,1,.49-.6A.54.54,0,0,1,82.45,119.27Z" fill="#fca93a"></path><path d="M68,119.84a.51.51,0,0,1-.48-.56.54.54,0,1,1,1.07,0A.58.58,0,0,1,68,119.84Z" fill="#fca93a"></path><path d="M62.5,132.69c.34,0,.54.17.54.47a.59.59,0,0,1-.56.56.56.56,0,0,1-.57-.54C61.91,132.88,62.13,132.69,62.5,132.69Z" fill="#fca93a"></path><path d="M74.77,137.25a.56.56,0,0,1,.62.49.6.6,0,0,1-1.18,0A.56.56,0,0,1,74.77,137.25Z" fill="#fca93a"></path><path d="M87.51,132.69c.38,0,.59.16.6.47a.56.56,0,0,1-.55.56.59.59,0,0,1-.57-.54C87,132.88,87.17,132.7,87.51,132.69Z" fill="#fca93a"></path><path d="M47.89,119.85c0,.3-.21.45-.48.35a.77.77,0,0,1-.42-.28.49.49,0,0,1-.06-.53.51.51,0,0,1,.52-.26c.21,0,.28.16.35.32A1.37,1.37,0,0,1,47.89,119.85Z" fill="#fca93a"></path><path d="M102.48,120.24a.4.4,0,0,1-.36-.43c0-.37.25-.68.49-.69a.49.49,0,0,1,.53.51A.77.77,0,0,1,102.48,120.24Z" fill="#fca93a"></path><path d="M68.4,121.1a.47.47,0,0,1,.47.44.57.57,0,0,1-.57.58.47.47,0,0,1-.45-.46A.59.59,0,0,1,68.4,121.1Z" fill="#fca93a"></path><path d="M81.64,121.1a.56.56,0,0,1,.52.58.45.45,0,0,1-.45.45.6.6,0,0,1-.56-.61A.49.49,0,0,1,81.64,121.1Z" fill="#fca93a"></path><path d="M43,128a.55.55,0,0,1-.56.54.47.47,0,0,1-.4-.51.56.56,0,0,1,.51-.54A.48.48,0,0,1,43,128Z" fill="#fca93a"></path><path d="M107,127.92a.44.44,0,0,1,.44-.46.54.54,0,0,1,.5.59.44.44,0,0,1-.44.46A.54.54,0,0,1,107,127.92Z" fill="#fca93a"></path><path d="M94.36,121.28a.4.4,0,0,1-.37-.41.42.42,0,0,1,.44-.44.37.37,0,0,1,.35.36C94.77,121,94.56,121.29,94.36,121.28Z" fill="#fca93a"></path><path d="M56,120.86c0,.25-.14.42-.35.42a.49.49,0,0,1-.41-.5.34.34,0,0,1,.36-.34A.38.38,0,0,1,56,120.86Z" fill="#fca93a"></path><path d="M109.47,116.49s-.06-.07,0-.11l.06.06Z" fill="#fca93a"></path><path d="M40.57,116.45s0,0,0,0a0,0,0,0,1,0,0c0,.07,0,0,0,0Z" fill="#fca93a"></path><path d="M71.69,116.15a.92.92,0,0,1-.9-1.06,1.7,1.7,0,0,1,.76-1.11l.13-.07a1.07,1.07,0,0,1,1.24.66.83.83,0,0,1-.24,1.21A1.94,1.94,0,0,1,71.69,116.15Z" fill="#030202"></path><path d="M77.65,119.21a1,1,0,0,1,1,1,1.06,1.06,0,0,1-.78,1.22.82.82,0,0,1-1-.51,2.1,2.1,0,0,1-.13-.86A.77.77,0,0,1,77.65,119.21Z" fill="#030202"></path><path d="M79.45,110.87a.8.8,0,0,1-.54.79.94.94,0,0,1-1-.31.9.9,0,0,1-.15-1,.88.88,0,0,1,.83-.5.46.46,0,0,1,.34.1A1.79,1.79,0,0,1,79.45,110.87Z" fill="#030202"></path><path d="M73.71,125.12a1,1,0,0,1-1.06.89c-.41,0-.68-.37-.67-.87a.91.91,0,0,1,.83-1A1,1,0,0,1,73.71,125.12Z" fill="#030202"></path><path d="M75.66,132.24a.82.82,0,0,1-.77.8.69.69,0,0,1-.66-.75c0-.48.33-.89.69-.88A.8.8,0,0,1,75.66,132.24Z" fill="#030202"></path><path d="M65.38,111.61a1.11,1.11,0,0,1-1,1.12,1.33,1.33,0,0,1-1.11-1.17,1.18,1.18,0,0,1,1.18-1.07A1,1,0,0,1,65.38,111.61Z" fill="#030202"></path><path d="M59.71,115.74a.74.74,0,0,1,.7.75.85.85,0,0,1-.78.87.83.83,0,0,1-.7-.83A.79.79,0,0,1,59.71,115.74Z" fill="#030202"></path><path d="M64.44,121.08a.64.64,0,0,1-.64-.71.59.59,0,0,1,.63-.64.75.75,0,0,1,.71.68A.73.73,0,0,1,64.44,121.08Z" fill="#030202"></path><path d="M62.61,126.65a.62.62,0,0,1-.65-.58.68.68,0,0,1,.62-.68.62.62,0,0,1,.65.68A.55.55,0,0,1,62.61,126.65Z" fill="#030202"></path><path d="M84.63,111.6a1.1,1.1,0,0,1,.93-1.11,1.23,1.23,0,0,1,1.2,1.05,1.37,1.37,0,0,1-1.16,1.19A1.12,1.12,0,0,1,84.63,111.6Z" fill="#030202"></path><path d="M90.34,115.74a.78.78,0,0,1,.75.82.74.74,0,1,1-1.45-.1A.68.68,0,0,1,90.34,115.74Z" fill="#030202"></path><path d="M86.24,120.4a.67.67,0,1,1-1.33,0,.68.68,0,0,1,.71-.65A.62.62,0,0,1,86.24,120.4Z" fill="#030202"></path><path d="M87.45,125.39a.68.68,0,0,1,.61.69.65.65,0,0,1-1.29-.07A.64.64,0,0,1,87.45,125.39Z" fill="#030202"></path><path d="M54.7,112.4a1.16,1.16,0,0,1-.45,1,.64.64,0,0,1-.91,0,1.11,1.11,0,0,1-.13-1.44.81.81,0,0,1,1.49.5Z" fill="#030202"></path><path d="M49.71,115.66a1.15,1.15,0,0,1-.26.76.61.61,0,0,1-.64.23.58.58,0,0,1-.43-.46,1,1,0,0,1,.5-1.2.42.42,0,0,1,.48,0A.81.81,0,0,1,49.71,115.66Z" fill="#030202"></path><path d="M52.29,123.73a.7.7,0,0,1-.67.71.68.68,0,0,1-.65-.62.69.69,0,0,1,.68-.69A.62.62,0,0,1,52.29,123.73Z" fill="#030202"></path><path d="M95.32,112.39a.81.81,0,0,1,.57-.82.78.78,0,0,1,.87.27,1.12,1.12,0,0,1-.12,1.55.64.64,0,0,1-.84,0A1.25,1.25,0,0,1,95.32,112.39Z" fill="#030202"></path><path d="M100.34,115.7a.85.85,0,0,1,.09-.44.52.52,0,0,1,.85-.17.94.94,0,0,1,.33,1.21.57.57,0,0,1-.93.22A.94.94,0,0,1,100.34,115.7Z" fill="#030202"></path><path d="M99,123.78a.64.64,0,0,1-.64.66.76.76,0,0,1-.67-.67.65.65,0,0,1,.61-.64A.67.67,0,0,1,99,123.78Z" fill="#030202"></path><path d="M118.84,123.83c-.23-.26-.4-.5-.61-.7a50,50,0,0,0-8.89-6.78,60.66,60.66,0,0,0-15.55-6.51,70.75,70.75,0,0,0-11.63-2.1c-2.17-.21-4.34-.33-6.52-.34a72,72,0,0,0-9.4.52A68.19,68.19,0,0,0,49.56,112a57.85,57.85,0,0,0-8.07,3.84,51.5,51.5,0,0,0-7.87,5.59c-.81.69-1.54,1.46-2.34,2.15l-.16.13a54.73,54.73,0,1,1,87.72.1Z" fill="#030303"></path><path d="M88.49,106.75l-1.25-.2c-.33-.06-.34-.06-.37-.41a1,1,0,0,0-.15-.43,8,8,0,0,1-.78-1.89c-.12-.34-.25-.67-.38-1-.62-1.59-1.13-3.23-1.8-4.81-.26-.6-.68-1.11-.92-1.72A9.46,9.46,0,0,0,81.58,94a1.64,1.64,0,0,0-.38-.41.9.9,0,0,0-1.18,0,.87.87,0,0,0-.09,1.17c.23.32.48.63.68,1,.35.58.51,1.24.87,1.8a14.77,14.77,0,0,1,1.45,3.28c.44,1.33,1,2.61,1.42,4a12.61,12.61,0,0,0,.51,1.31,1.56,1.56,0,0,1-.68,0c-.2,0-.41-.08-.61-.08s-.6-.07-.63-.48c0-.11-.12-.21-.19-.3a1.65,1.65,0,0,1-.26-.44c-.41-1.2-.91-2.37-1.4-3.53a11.44,11.44,0,0,1-.48-1.35c-.22-.79-.74-1.43-1-2.2a.83.83,0,0,0-.88-.57.8.8,0,0,0-.76.52.9.9,0,0,0,0,.7,4,4,0,0,0,.28.72,16.91,16.91,0,0,1,1.1,2.64c.36,1,.78,1.93,1.2,2.89.15.35.22.72.37,1.09a10.14,10.14,0,0,1-1.76-.08.18.18,0,0,1-.18-.16,1.14,1.14,0,0,0-.52-.68,1.26,1.26,0,0,1-.47-.7c-.13-.43-.28-.85-.44-1.26a2,2,0,0,0-.25-.51.88.88,0,0,0-1.58.76c.27.77.56,1.54.84,2.31a.63.63,0,0,1,0,.14c-1,0-2-.06-3.13,0,.28-.78.53-1.52.8-2.25a1.42,1.42,0,0,0,.12-.54.87.87,0,0,0-1.46-.62,1.37,1.37,0,0,0-.38.6c-.16.44-.32.87-.45,1.32a1.28,1.28,0,0,1-.5.74,1.18,1.18,0,0,0-.5.64c0,.1-.07.18-.2.19a16,16,0,0,1-1.73.1,5.73,5.73,0,0,1,.29-1c.45-.91.72-1.89,1.17-2.8a11.2,11.2,0,0,0,.41-1.15,10.77,10.77,0,0,1,.78-1.73,3,3,0,0,0,.32-.87.9.9,0,0,0-.5-1,.84.84,0,0,0-1.08.33c-.28.64-.67,1.23-.92,1.89s-.53,1.44-.81,2.16c-.42,1.06-.89,2.11-1.25,3.2a1.16,1.16,0,0,1-.23.4,1,1,0,0,0-.28.53.27.27,0,0,1-.26.27c-.53,0-1,.16-1.6.15.4-1.11.75-2.2,1.18-3.26s.73-2.17,1.18-3.23a11.87,11.87,0,0,1,.73-1.58,11.16,11.16,0,0,0,.7-1.38A6.5,6.5,0,0,1,70,95a1,1,0,0,0,.28-.8.89.89,0,0,0-1.5-.52,3.8,3.8,0,0,0-.8,1.06,7.64,7.64,0,0,0-.69,1.37,4.56,4.56,0,0,1-.51,1,10,10,0,0,0-.82,1.71c-.52,1.38-1,2.76-1.52,4.15-.26.7-.51,1.41-.78,2.12a3,3,0,0,1-.31.59,1,1,0,0,0-.19.57c0,.24-.1.3-.29.33l-1.11.18c-.26,0-.31,0-.26-.26.16-.94.33-1.88.54-2.82a26,26,0,0,1,2.75-7.11,47,47,0,0,1,4.67-7c.43-.51.89-1,1.33-1.5.15-.16.29-.33.44-.5.16,0,.25.12.35.19.63.45,1.25.91,1.88,1.35a.76.76,0,0,1,.36.64c0,.67.06,1.34.09,2,0,.14,0,.28,0,.41A11.64,11.64,0,0,1,74,95.39c0,.37,0,.75,0,1.12,0,.82,0,1.65,0,2.47a1,1,0,0,0,.08.5.88.88,0,0,0,.88.51.87.87,0,0,0,.79-.55,1.4,1.4,0,0,0,.1-.61V94.2a10,10,0,0,1,.11-1.89,17.49,17.49,0,0,0,.13-2v-.21a1.19,1.19,0,0,1,.59-1.14c.69-.42,1.31-.93,2-1.42a40.3,40.3,0,0,1,2.65,3.08A45.75,45.75,0,0,1,86.48,99a23.8,23.8,0,0,1,1.62,5.14q.21,1,.39,2A1,1,0,0,1,88.49,106.75Z" fill="#f39898"></path><path d="M96.93,61.31,96,60.75c-1.34-.81-2.74-1.5-4.14-2.18-2.33-1.13-4.66-2.25-7.06-3.21a21.15,21.15,0,0,0-6-1.51c-.8-.07-1.6-.14-2.4-.18-.41,0-.82-.08-1.23-.09-.87,0-1.74.11-2.61.16s-1.5.12-2.25.21a19.46,19.46,0,0,0-4.8,1.28c-3.46,1.37-6.8,3-10.1,4.71-.7.35-1.37.79-2,1.19-.32.18-.32.19-.49-.14-1-2-2-4-2.93-6.07s-2-4.36-2.8-6.62c-.18-.5-.34-1-.49-1.51s-.11-.37.22-.58c1-.66,2.08-1.26,3.15-1.83a51.95,51.95,0,0,1,16.32-5.55c1.47-.25,3-.39,4.43-.52a48.61,48.61,0,0,1,5.91-.16c1.5.05,3,.19,4.5.35a48.53,48.53,0,0,1,5.06.84,51.5,51.5,0,0,1,8.29,2.54,52.07,52.07,0,0,1,7.94,4c1.1.68,1,.39.6,1.58a39.62,39.62,0,0,1-1.68,4.31c-1.12,2.59-2.31,5.16-3.56,7.69C97.58,60,97.26,60.65,96.93,61.31Z" fill="#cf2257"></path><path d="M67.15,73.38A4.32,4.32,0,0,1,68,72.8a11.92,11.92,0,0,1,4-1.33l1.47-.21c.22,0,.32.06.33.28s0,.34,0,.51v6.22a4.9,4.9,0,0,0,.06,1.08,1.51,1.51,0,0,1,0,.56.84.84,0,0,0,.7,1.06,2,2,0,0,0,1,0,.8.8,0,0,0,.58-.81c-.07-.67,0-1.33,0-2,0-2,0-4.08,0-6.12,0-.81,0-.83.86-.69a18.43,18.43,0,0,1,3.35.75,10.46,10.46,0,0,1,2.24,1.13c.29.19.29.19.08.47a1.94,1.94,0,0,1-.23.27,24.17,24.17,0,0,0-2.21,2.83c-.3.41-.55.86-.85,1.28a.89.89,0,1,0,1.41,1.08,2.63,2.63,0,0,0,.29-.37c.41-.73,1-1.35,1.41-2.08a2.86,2.86,0,0,1,.3-.41l1.32-1.51c.21-.25.22-.26.44-.06.79.71,1.55,1.46,2.27,2.23.15.17.08.27,0,.4-.5.56-1,1.14-1.49,1.7-.92,1-1.84,2-2.82,2.92a56.25,56.25,0,0,1-6.4,5.24c-.26.19-.55.36-.8.57a.43.43,0,0,1-.63,0c-.86-.63-1.73-1.24-2.58-1.88a48.36,48.36,0,0,1-5.75-5q-1.59-1.65-3.08-3.39c-.28-.33-.28-.34,0-.67.64-.68,1.3-1.32,2-2a2.11,2.11,0,0,1,.23-.19.17.17,0,0,1,.27,0c.59.82,1.36,1.49,1.91,2.35.44.69.9,1.37,1.4,2a1.53,1.53,0,0,0,.28.29.88.88,0,0,0,1.34-1,.84.84,0,0,0-.09-.19c-.43-.49-.68-1.11-1.11-1.61s-.71-1.13-1.17-1.61-.67-.74-1-1.12A.57.57,0,0,1,67.15,73.38Z" fill="#cf2257"></path><path d="M108.46,76.64l.23.2a8.38,8.38,0,0,0,4.36,2.35,15.84,15.84,0,0,0,3.88.35,32.35,32.35,0,0,0,4.29-.33,12.08,12.08,0,0,0,4.63-1.58.76.76,0,0,1,.18-.09s0,0,.09,0a2.27,2.27,0,0,1,.2.7c.25.92.46,1.86.62,2.8,0,.14.07.25-.07.37-.57.51-1.07,1.1-1.64,1.61a13.32,13.32,0,0,1-7.17,3.29,11.81,11.81,0,0,1-6.06-.62,12.43,12.43,0,0,1-2.32-1.2,23.07,23.07,0,0,1-4.06-3.38c-.26-.28-.26-.29,0-.59L108.15,77A.91.91,0,0,1,108.46,76.64Z" fill="#eddbd2"></path><path d="M23.93,77.48a11.32,11.32,0,0,0,3.18,1.39,17.71,17.71,0,0,0,2.88.5,27.83,27.83,0,0,0,5.08.11,10.67,10.67,0,0,0,4.6-1.33,7.75,7.75,0,0,0,1.86-1.51c.17.06.24.21.33.33l2.57,3.54c.22.31.22.32,0,.59a20.79,20.79,0,0,1-5,4,10.75,10.75,0,0,1-4.84,1.35,13.59,13.59,0,0,1-7.8-2,15,15,0,0,1-3.15-2.63l0,0a1,1,0,0,1-.38-1.28c.25-.93.44-1.87.65-2.8A1.76,1.76,0,0,1,23.93,77.48Z" fill="#eddbd2"></path><path d="M116.76,77.75a13.21,13.21,0,0,1-3.32-.31,6.83,6.83,0,0,1-3.15-1.53,1.14,1.14,0,0,1-.11-.11c-.66-.61-.66-.61-.12-1.3.93-1.19,1.82-2.4,2.65-3.66.2-.31.21-.31.54-.14s.57.31.87.44a7.18,7.18,0,0,0,2.19.69c.81.07,1.62.27,2.44.32a5.86,5.86,0,0,0,2.08-.21,21.05,21.05,0,0,0,2.66-1c.38-.18.39-.16.55.21.56,1.34,1,2.72,1.48,4.1a.39.39,0,0,1-.19.51,8.33,8.33,0,0,1-2.87,1.32,20.14,20.14,0,0,1-3.55.53C118.19,77.72,117.48,77.75,116.76,77.75Z" fill="#eddbd2"></path><path d="M33.07,77.76a23.94,23.94,0,0,1-5.54-.64,8.35,8.35,0,0,1-2.83-1.29.41.41,0,0,1-.19-.55c.46-1.38.91-2.76,1.48-4.1.15-.35.16-.36.52-.19a19.22,19.22,0,0,0,2.85,1,7.38,7.38,0,0,0,3,.07c.6-.09,1.21-.2,1.82-.28A6.29,6.29,0,0,0,36,71.08c.3-.15.61-.3.91-.47.14-.09.21,0,.29.08s.15.22.22.34c.82,1.24,1.72,2.44,2.63,3.61.07.08.12.17.19.25s.13.32,0,.49a5.79,5.79,0,0,1-2,1.5,9.79,9.79,0,0,1-2.91.77A19.43,19.43,0,0,1,33.07,77.76Z" fill="#eddbd2"></path><path d="M26.85,69.15a52.72,52.72,0,0,1,5-8.64c.17.09.19.23.25.35.61,1.3,1.21,2.61,1.82,3.91a42.32,42.32,0,0,0,2,3.76l.15.27a.2.2,0,0,1-.1.3,6.79,6.79,0,0,1-2.57,1c-.63,0-1.24.23-1.88.27A5.62,5.62,0,0,1,29.11,70,16,16,0,0,1,26.85,69.15Z" fill="#eddbd2"></path><path d="M118.14,60.47a15,15,0,0,1,1.14,1.61A51.71,51.71,0,0,1,123,68.72a1.51,1.51,0,0,0,.09.18c.11.19.06.31-.14.4a15.3,15.3,0,0,1-2.86,1,6.45,6.45,0,0,1-2.55-.07,7.53,7.53,0,0,0-1.06-.16,4.51,4.51,0,0,1-1.55-.52l-.64-.33c-.37-.19-.38-.22-.16-.57.58-1,1.13-2,1.62-3,.67-1.42,1.33-2.85,2-4.27Z" fill="#eddbd2"></path><path d="M127.05,100.48c-.65-.28-1.22-.58-1.82-.83a23.18,23.18,0,0,0-5-1.4,26.57,26.57,0,0,0-5.77-.41A14.2,14.2,0,0,0,104,102.63a25,25,0,0,0-2.35,3,15.17,15.17,0,0,0-1.84,3.72l-.09.24c0,.15-.12.18-.27.12s-.48-.17-.72-.25c-.59-.2-1.17-.4-1.76-.58-.19-.06-.27-.13-.27-.35a27.15,27.15,0,0,0-.66-5.54,1.35,1.35,0,0,1,.16-1,32.76,32.76,0,0,1,7-8.25,22.27,22.27,0,0,1,11.34-4.51,20,20,0,0,1,5.91.58,33.35,33.35,0,0,1,6.93,2.5.64.64,0,0,1,.41.71,53.36,53.36,0,0,1-.76,7.25C127.1,100.29,127.08,100.35,127.05,100.48Z" fill="#eddbd2"></path><path d="M23,100.49a3.67,3.67,0,0,1-.23-1.09,51.29,51.29,0,0,1-.56-5.1c0-.48,0-1-.08-1.43a.45.45,0,0,1,.29-.52c.74-.37,1.48-.72,2.25-1a31.18,31.18,0,0,1,6.64-1.92,17,17,0,0,1,7.77.48,25.25,25.25,0,0,1,4.54,1.76,20.2,20.2,0,0,1,5.32,4.09,35.32,35.32,0,0,1,3.23,3.79c.61.84,1.16,1.7,1.69,2.59a.82.82,0,0,1,.11.67,34.27,34.27,0,0,0-.72,5.34,1.27,1.27,0,0,0,0,.2c0,.46,0,.46-.39.59l-2.24.74c-.28.1-.29.1-.39-.19a19.49,19.49,0,0,0-5.35-7.93,13.41,13.41,0,0,0-6.8-3.4,20.58,20.58,0,0,0-5.43-.23,27,27,0,0,0-6.48,1.24A20.15,20.15,0,0,0,23,100.49Z" fill="#eddbd2"></path><path d="M34.46,99.6a15.83,15.83,0,0,1,5.15.79,11.5,11.5,0,0,1,4,2.43,19.86,19.86,0,0,1,3.73,4.63A12.37,12.37,0,0,1,48.51,110c.11.37.12.38-.23.52-1.18.47-2.34,1-3.48,1.51-.43.21-.37.18-.59-.17a14.34,14.34,0,0,0-4.87-4.71,17.79,17.79,0,0,0-5.41-2,21.14,21.14,0,0,0-4.48-.5,12.13,12.13,0,0,0-5,.93c-.26.11-.28.1-.35-.17-.24-.91-.47-1.82-.71-2.73-.06-.24,0-.36.25-.48a18,18,0,0,1,4.53-1.77,24.94,24.94,0,0,1,5.37-.77Z" fill="#eddbd2"></path><path d="M125.86,105.62c-.2,0-.32-.07-.46-.13a11.69,11.69,0,0,0-3.59-.8,20.71,20.71,0,0,0-8.23,1.15,14.6,14.6,0,0,0-7.77,6l0,0c-.2.3-.2.31-.51.17l-.8-.37c-.9-.42-1.81-.8-2.73-1.17-.43-.17-.35-.15-.23-.52a13.07,13.07,0,0,1,1.61-3.32,19.8,19.8,0,0,1,3.62-4.18,11.55,11.55,0,0,1,5.6-2.64,18.16,18.16,0,0,1,4.1-.24,27.54,27.54,0,0,1,4.87.65,18.14,18.14,0,0,1,5.08,1.91c.29.16.3.16.22.51C126.38,103.69,126.15,104.67,125.86,105.62Z" fill="#eddbd2"></path><path d="M42.76,113a3.1,3.1,0,0,1-.66.39c-1.08.58-2.15,1.2-3.19,1.86-.35.21-.35.2-.65-.07A3.07,3.07,0,0,1,38,115a8.25,8.25,0,0,0-2.2-1.74,4.47,4.47,0,0,0-1.66-.45c-.21,0-.41-.05-.61-.1a10.88,10.88,0,0,0-3-.24,4,4,0,0,0-1.73.41c-.46.23-.95.39-1.42.59-.22.1-.31,0-.39-.17-.25-.57-.5-1.13-.74-1.7-.54-1.24-1-2.51-1.42-3.79-.11-.34-.1-.34.22-.49a8.38,8.38,0,0,1,2.45-.7,17.82,17.82,0,0,1,6.22.36A15.12,15.12,0,0,1,39,109.05a12.43,12.43,0,0,1,3.56,3.52c.07.11.15.23.21.34A.35.35,0,0,1,42.76,113Z" fill="#eddbd2"></path><path d="M107.24,113a11.5,11.5,0,0,1,1.87-2.36,14.44,14.44,0,0,1,7.36-3.73,19.28,19.28,0,0,1,5.3-.41,9,9,0,0,1,3.22.8c.31.14.31.14.21.45a49.43,49.43,0,0,1-2.13,5.44c-.16.35-.17.35-.53.2-.52-.21-1.05-.42-1.56-.65a5.27,5.27,0,0,0-2.22-.3,9.53,9.53,0,0,0-2.49.29,5.53,5.53,0,0,1-.91.12,4,4,0,0,0-1.33.5,9.55,9.55,0,0,0-2.33,1.91c-.17.17-.3.22-.52.08-1.21-.78-2.46-1.49-3.73-2.16A.4.4,0,0,1,107.24,113Z" fill="#eddbd2"></path><path d="M37,116.48a50.26,50.26,0,0,0-5.58,4.46A34.17,34.17,0,0,1,28,115.18a.53.53,0,0,1,.29-.18c.51-.21,1-.43,1.52-.63a4.47,4.47,0,0,1,1.67-.16c1,0,2,.3,3,.4a.79.79,0,0,1,.3.08,12.48,12.48,0,0,1,1.26.77C36.36,115.75,36.61,116.18,37,116.48Z" fill="#eddbd2"></path><path d="M118.62,121a50.55,50.55,0,0,0-5.63-4.51,11.6,11.6,0,0,1,1.64-1.42,5,5,0,0,1,1.52-.55,19.48,19.48,0,0,1,3-.32,3.07,3.07,0,0,1,1.33.29c.5.23,1,.42,1.57.65A51.92,51.92,0,0,1,118.62,121Z" fill="#eddbd2"></path><path d="M57.05,98.73c.09,0,.14,0,.16,0a9.07,9.07,0,0,0,3,1.53c.8.34.81.3.56,1.12a35.23,35.23,0,0,0-.94,4.19c-.08.43-.16.84-.21,1.27,0,.21-.13.28-.32.32-.85.19-1.7.39-2.54.6-.53.13-1.06.28-1.58.42a17.1,17.1,0,0,1,.51-4.81A32.52,32.52,0,0,1,57.05,98.73Z" fill="#cf2257"></path><path d="M93,98.71a29.47,29.47,0,0,1,2,9.52L93,107.74c-.75-.18-1.49-.37-2.25-.52a.43.43,0,0,1-.39-.44,42.09,42.09,0,0,0-.94-4.73c-.1-.37-.21-.73-.32-1.09a.33.33,0,0,1,.2-.45,1.11,1.11,0,0,1,.19-.09c.73-.2,1.38-.61,2.09-.86a2.49,2.49,0,0,0,1-.59A.77.77,0,0,1,93,98.71Z" fill="#cf2257"></path><path d="M89.05,90.4c.23.11.29.3.39.46a31.72,31.72,0,0,1,2.48,5.07l.09.23c.26.69.25.68-.31,1.18a4,4,0,0,1-1.26.76c-.59.23-1.15.53-1.75.73-.21.07-.31,0-.4-.17a39.93,39.93,0,0,0-2.76-5.21c-.2-.31-.17-.3.09-.6a6,6,0,0,1,1.27-1A15.25,15.25,0,0,0,89.05,90.4Z" fill="#cf2257"></path><path d="M60.93,90.37a26,26,0,0,0,2.69,1.78c.35.26.61.6.95.86.16.12,0,.25,0,.37-.29.48-.59,1-.87,1.45a36.63,36.63,0,0,0-2,3.85,2.72,2.72,0,0,1-.12.25c-.51-.23-1.05-.35-1.53-.62a1.41,1.41,0,0,0-.37-.18A4.12,4.12,0,0,1,57.94,97a.3.3,0,0,1-.11-.39,32.17,32.17,0,0,1,2.93-6.05C60.8,90.51,60.85,90.47,60.93,90.37Z" fill="#cf2257"></path><path d="M80.19,86.39l1.21-1c.56-.46,1.11-.92,1.62-1.42.35-.33.36-.33.71,0a25.45,25.45,0,0,1,4.09,4.52l.15.21a.23.23,0,0,1,0,.35,5.34,5.34,0,0,1-.92.66c-.66.37-1.28.78-1.91,1.21-.27.18-.46.45-.76.69-.43-.61-.85-1.2-1.29-1.78s-.9-1.17-1.37-1.73S80.7,87,80.19,86.39Z" fill="#cf2257"></path><path d="M65.67,91.56a13.08,13.08,0,0,0-2.87-2c-1-.58-1-.59-.32-1.49a26.74,26.74,0,0,1,3.77-4.11l.2-.17a.24.24,0,0,1,.36,0c.28.26.55.52.84.76l2,1.66c.23.19.23.2,0,.4a34.72,34.72,0,0,0-3.88,4.84Z" fill="#cf2257"></path><path d="M105,47.49a17.2,17.2,0,0,1,1.44,1c.4.3.79.61,1.19.9a.36.36,0,0,1,.14.48c-.37,1.21-.71,2.43-1.07,3.64a6.14,6.14,0,0,0-.3,1.4,3.4,3.4,0,0,1-.17.7c-.16.56-.34,1.11-.51,1.67a11.48,11.48,0,0,1-.61,1.52c-.4.83-.78,1.67-1.15,2.52a5.82,5.82,0,0,1-.62,1.12.86.86,0,0,0,0,1,.88.88,0,0,0,1.45.09,4.7,4.7,0,0,0,.73-1.17c.48-1,.93-2.06,1.4-3.08a7.18,7.18,0,0,0,.7-2,2.23,2.23,0,0,1,.13-.44,9.69,9.69,0,0,0,.51-2,12.71,12.71,0,0,1,.68-2.41c.17-.52.31-1,.46-1.61a8.15,8.15,0,0,1,1.17,1q1.53,1.38,2.94,2.88a47.85,47.85,0,0,1,3.27,3.83.48.48,0,0,1,.07.59c-.78,1.62-1.54,3.25-2.3,4.88a44.49,44.49,0,0,1-4.7,7.84c-2.06,2.74-4.13,5.47-6.15,8.24a52.81,52.81,0,0,1-4.39,5.17c-1.8,1.87-3.73,3.6-5.62,5.36A19.24,19.24,0,0,1,92.2,91.9c-.18-.05-.21-.19-.27-.31a39.86,39.86,0,0,0-3.27-5c-.23-.3-.23-.32,0-.55a43.14,43.14,0,0,0,4-4c1.32-1.43,2.65-2.87,3.9-4.37a31.87,31.87,0,0,0,4.25-6.35,2.6,2.6,0,0,0,.19-.42.88.88,0,0,0-.41-1,.85.85,0,0,0-1.08.16,1.77,1.77,0,0,0-.28.43,28.69,28.69,0,0,1-4.08,6.09c-2,2.36-4.09,4.67-6.31,6.85-.45.44-.93.86-1.4,1.29-.13.12-.26.16-.4,0-.77-.8-1.55-1.58-2.4-2.33l1.56-1.69A62.53,62.53,0,0,0,91.69,74a66,66,0,0,0,4.07-6.36c.77-1.39,1.46-2.83,2.17-4.26,1.07-2.17,2.19-4.31,3.19-6.51,1.24-2.71,2.51-5.41,3.51-8.22Z" fill="#2da4a8"></path><path d="M40.63,50.9c.19.22.13.5.21.74.27.83.52,1.66.78,2.49a4,4,0,0,1,.2,1,2.39,2.39,0,0,0,.11.65,32.67,32.67,0,0,0,1.16,3.46c.52,1.11,1,2.24,1.53,3.36a4.13,4.13,0,0,0,.68,1,.89.89,0,0,0,1.21.11.86.86,0,0,0,.21-1.16A27.66,27.66,0,0,1,45,59.07c-.25-.5-.42-1-.67-1.55s-.22-.93-.41-1.37a6,6,0,0,1-.35-1.34,15.75,15.75,0,0,0-.87-3.16c-.22-.62-.27-1.27-.52-1.88-.06-.15,0-.25.14-.35.77-.6,1.54-1.2,2.35-1.74.29-.2.32-.19.42.14a90.62,90.62,0,0,0,4,9.42c1.11,2.42,2.37,4.75,3.51,7.15A67.33,67.33,0,0,0,60.45,76.8,59.67,59.67,0,0,0,65,82l.18.19a.17.17,0,0,1,0,.27l-.19.18a22.46,22.46,0,0,0-1.92,1.86l-.18.18a.22.22,0,0,1-.35,0l-.74-.65c-1.35-1.23-2.6-2.59-3.83-3.94-1.43-1.55-2.85-3.11-4.15-4.77a28.3,28.3,0,0,1-3.05-4.76,2.39,2.39,0,0,0-.28-.49.87.87,0,0,0-1.14-.25A.92.92,0,0,0,49,71a26.52,26.52,0,0,0,1.4,2.57,42.77,42.77,0,0,0,4.8,6.16c1.5,1.67,3,3.34,4.61,4.91.51.51,1,1,1.59,1.46.14.12.19.22.06.38a40,40,0,0,0-3.52,5.43s0,0-.06.06a5.79,5.79,0,0,1-1-.81c-1.58-1.45-3.15-2.91-4.69-4.39a52.85,52.85,0,0,1-6.15-7c-1.86-2.55-3.76-5.07-5.66-7.58a44.53,44.53,0,0,1-5.1-8.55c-.67-1.47-1.36-2.92-2.07-4.37a.57.57,0,0,1,.07-.69c.94-1.21,1.93-2.36,3-3.48a48.7,48.7,0,0,1,4.07-3.93A.47.47,0,0,1,40.63,50.9Z" fill="#2da4a8"></path><path d="M95.33,99.93c-.12-.07-.11-.2-.15-.31-.64-1.87-1.31-3.72-2.08-5.53-.17-.41-.17-.41.15-.69,1.72-1.52,3.37-3.11,5.06-4.67a62,62,0,0,0,5.63-6.06l0,0c.28-.32.28-.32.58,0s.78.77,1.19,1.14a19.8,19.8,0,0,0,5.14,3.45c.41.18.83.33,1.25.5a.47.47,0,0,1-.32.14,25.52,25.52,0,0,0-6.72,2.49,19.37,19.37,0,0,0-3.83,2.77,36.3,36.3,0,0,0-5.5,6.3l-.38.54Z" fill="#2da4a8"></path><path d="M54.73,99.93c-.17,0-.2-.14-.26-.23a33,33,0,0,0-3.54-4.46,33,33,0,0,0-2.88-2.79,20.88,20.88,0,0,0-6.79-3.77,24.54,24.54,0,0,0-3-.86.7.7,0,0,1-.37-.16,20.76,20.76,0,0,0,7.86-5.33,3.37,3.37,0,0,1,.7.77,61.84,61.84,0,0,0,6.17,6.47c1.19,1.09,2.36,2.19,3.55,3.29l.57.51c.41.35.35.33.18.73-.65,1.53-1.22,3.09-1.78,4.65C55,99.14,54.86,99.53,54.73,99.93Z" fill="#2da4a8"></path><path d="M127.32,83.58a50.68,50.68,0,0,1,.6,6.88l-2.6-1.07a26,26,0,0,0-2.57-.89c-.88-.26-1.78-.47-2.78-.73A16,16,0,0,0,127.32,83.58Z" fill="#2da4a8"></path><path d="M22.7,83.51a15.61,15.61,0,0,0,7.23,4.27,38.09,38.09,0,0,0-7.72,2.66A32.86,32.86,0,0,1,22.7,83.51Z" fill="#2da4a8"></path><path d="M86,63.89l-1.57-.75a21.87,21.87,0,0,0-4.77-1.7A21.6,21.6,0,0,0,77,61.09l-.62,0a.18.18,0,0,1,0-.22,11.6,11.6,0,0,1,3.75-2.92,4.64,4.64,0,0,1,1.16-.38,2,2,0,0,1,2,.72,6.05,6.05,0,0,1,1,1.72c.28.67.54,1.34.8,2A12.11,12.11,0,0,0,86,63.82Z" fill="#f39898"></path><path d="M64,63.86c0-.07,0-.12,0-.18a15.24,15.24,0,0,0,1.11-2.43A17.19,17.19,0,0,1,66,59.32a5.06,5.06,0,0,1,.7-1.07,2,2,0,0,1,2-.71,5.5,5.5,0,0,1,1.44.52,11.82,11.82,0,0,1,3.43,2.74l.11.16c0,.1-.09.11-.16.11a19.21,19.21,0,0,0-8,2.11,7.9,7.9,0,0,1-1.48.67Z" fill="#f39898"></path><path d="M76.2,62.87a18.43,18.43,0,0,1,8.68,2.51,7.6,7.6,0,0,0-3.62,1.79c-.49.37-1,.75-1.5,1.08a3.07,3.07,0,0,1-.36.2.89.89,0,0,1-1.26-.29,4.6,4.6,0,0,1-.73-1.34c-.48-1.25-.83-2.54-1.22-3.81C76.18,63,76.19,63,76.2,62.87Z" fill="#f39898"></path><path d="M65.15,65.38a18.26,18.26,0,0,1,8.61-2.51c.11.11,0,.23,0,.33-.37,1.16-.69,2.33-1.12,3.47A5.89,5.89,0,0,1,72,68a1,1,0,0,1-1.53.37,11.17,11.17,0,0,1-1.35-.93c-.55-.41-1.09-.84-1.67-1.2A5.88,5.88,0,0,0,65.15,65.38Z" fill="#f39898"></path><path d="M55.6,62a76.36,76.36,0,0,1,9.33-4.49c0,.14-.07.21-.13.3a16.59,16.59,0,0,0-1.31,2.84c-.2.51-.42,1-.64,1.52a4.2,4.2,0,0,1-.53.88,1.73,1.73,0,0,1-1.72.67,6.27,6.27,0,0,1-1.34-.34C58,62.93,56.85,62.39,55.6,62Z" fill="#f39898"></path><path d="M85.09,57.51a77.79,77.79,0,0,1,9.27,4.41s0,.06,0,.08l-3.4,1.31a7.4,7.4,0,0,1-1.54.39A1.7,1.7,0,0,1,87.68,63a4.71,4.71,0,0,1-.61-1.07c-.3-.74-.61-1.48-.9-2.23a12.39,12.39,0,0,0-1-1.93A.4.4,0,0,1,85.09,57.51Z" fill="#f39898"></path><path d="M87.44,74.92c-.59-.55-1.16-1.12-1.76-1.65a13.87,13.87,0,0,0-5.28-3.08l-.13-.07a.08.08,0,0,1,0-.12,22.54,22.54,0,0,0,2.35-1.65,7.07,7.07,0,0,1,1.53-.94,1.42,1.42,0,0,1,2.15.84,7.24,7.24,0,0,1,.52,2c.2,1.27.29,2.55.52,3.81a3.17,3.17,0,0,1,.12.81C87.52,74.9,87.49,74.93,87.44,74.92Z" fill="#f39898"></path><path d="M69.86,70.09a14,14,0,0,0-4,2,27.62,27.62,0,0,0-3.3,2.9.12.12,0,0,1-.07-.15c.36-1.66.45-3.36.74-5,.08-.42.2-.84.32-1.25A3.06,3.06,0,0,1,63.8,68a1.31,1.31,0,0,1,1.78-.68,4.67,4.67,0,0,1,1.13.59c.43.29.84.6,1.25.91A14.63,14.63,0,0,0,69.86,70.09Z" fill="#f39898"></path><path d="M69.74,55.85a32.9,32.9,0,0,1,10.48,0c0,.1,0,.13-.1.15a12.59,12.59,0,0,0-4.83,3.39c-.28.31-.28.32-.57,0A12.42,12.42,0,0,0,69.85,56S69.81,55.93,69.74,55.85Z" fill="#f39898"></path><path d="M95.83,63.54A49.59,49.59,0,0,1,93,68.69a32.94,32.94,0,0,0-4.11-3.13l.92-.12a12.65,12.65,0,0,0,2.93-.93,23.32,23.32,0,0,1,2.8-1C95.65,63.5,95.7,63.45,95.83,63.54Z" fill="#f39898"></path><path d="M54.26,63.49a6.41,6.41,0,0,1,1.18.33l2,.77a11.29,11.29,0,0,0,3.54,1,41,41,0,0,0-4,3.07A26.13,26.13,0,0,1,54.26,63.49Z" fill="#f39898"></path><path d="M62.17,67c.06.06,0,.12,0,.18a9.09,9.09,0,0,0-.83,2.94c-.18,1.25-.28,2.51-.51,3.75a.26.26,0,0,1-.07.19c-.08.05-.13,0-.17-.07-.85-1.15-1.66-2.34-2.47-3.52-.13-.19-.15-.31,0-.47a30.73,30.73,0,0,1,3.87-3,.66.66,0,0,1,.15,0Z" fill="#f39898"></path><path d="M87.77,67.06a.41.41,0,0,1,.34.1,30.71,30.71,0,0,1,3.64,2.78c.36.32.35.28.08.66l-2.27,3.24a.62.62,0,0,1-.3.3,12.85,12.85,0,0,1-.33-1.92c-.15-1.12-.24-2.25-.5-3.35A8.07,8.07,0,0,0,87.77,67.06Z" fill="#f39898"></path><path d="M76.83,69.42a1.11,1.11,0,0,1-.67,0c-.52-.29-1.08-.11-1.61-.18a.79.79,0,0,0-.45.1,1.52,1.52,0,0,1-.83.12c.09-.36.38-.59.52-.91s.33-.67.48-1,.24-.67.36-1,.22-.68.37-1.12A13.11,13.11,0,0,0,76.83,69.42Z" fill="#f39898"></path><path d="M87.51,74.85c.08,0,.07.09,0,.15l-.1-.08A.46.46,0,0,1,87.51,74.85Z" fill="#f29797"></path><path d="M62.18,67.05l.06-.06V67s-.05,0-.07,0Z" fill="#f09696"></path><path d="M64,63.85c-.05,0,0,0,0,0h0s0,0,.06,0Z" fill="#f29797"></path><path d="M99.41,79.41a.89.89,0,0,1-.79-.52.77.77,0,0,1,.11-.91,8.81,8.81,0,0,1,.66-.71,19.85,19.85,0,0,0,2.92-4,71,71,0,0,0,4.21-8.69c.41-1,.78-2,1.17-3a2.8,2.8,0,0,1,.19-.43.88.88,0,0,1,1.62.65,4.49,4.49,0,0,1-.19.59A79.88,79.88,0,0,1,104,73.88,22.19,22.19,0,0,1,100.24,79,1.26,1.26,0,0,1,99.41,79.41Z" fill="#010303"></path><path d="M51.48,78.57a.89.89,0,0,1-1.38.68,4,4,0,0,1-.53-.48,22,22,0,0,1-3.13-4.13,68.11,68.11,0,0,1-3.54-6.91c-.78-1.71-1.48-3.46-2.14-5.22-.08-.23-.17-.45-.23-.68a.89.89,0,0,1,.53-1.09.86.86,0,0,1,1.11.46c.15.31.25.64.37,1a79.94,79.94,0,0,0,4.69,10.27,21.66,21.66,0,0,0,3.92,5.38A1,1,0,0,1,51.48,78.57Z" fill="#010303"></path><path d="M74.89,84.94A1,1,0,0,1,74,84.4a.87.87,0,0,1,.41-1.17,1.33,1.33,0,0,1,.9-.07.88.88,0,0,1,0,1.73A1.64,1.64,0,0,1,74.89,84.94Z"></path><path d="M71.82,81.83a1,1,0,0,1-1,.83A.9.9,0,1,1,71,80.87,1,1,0,0,1,71.82,81.83Z"></path><path d="M80,81.74a.88.88,0,1,1-.89-.88A.91.91,0,0,1,80,81.74Z"></path><path d="M101.12,67.15a.89.89,0,0,1,.88.93.88.88,0,1,1-.88-.93Z"></path><path d="M103.13,65.4a.9.9,0,0,1-.86.91.93.93,0,0,1-.9-.88.83.83,0,0,1,.86-.88A.84.84,0,0,1,103.13,65.4Z"></path><path d="M111.39,55.71a.85.85,0,0,1-.89.85.88.88,0,1,1,0-1.75A.84.84,0,0,1,111.39,55.71Z"></path><path d="M108.78,58.64a.81.81,0,0,1,.85-.88.84.84,0,0,1,.9.85.92.92,0,0,1-.87.91A.89.89,0,0,1,108.78,58.64Z"></path><path d="M97.71,81.08a.86.86,0,0,1-.85.9.89.89,0,1,1,0-1.77A.86.86,0,0,1,97.71,81.08Z"></path><path d="M94.11,84.1a.85.85,0,0,1-.89.86.91.91,0,0,1-.87-.91.93.93,0,0,1,.92-.86A.86.86,0,0,1,94.11,84.1Z"></path><path d="M54.05,81.08a.88.88,0,1,1-.88-.87A.88.88,0,0,1,54.05,81.08Z"></path><path d="M57.66,84.08a.9.9,0,0,1-.88.89.89.89,0,1,1,.88-.89Z"></path><path d="M40.37,55.73a.88.88,0,0,1-1.76-.06.89.89,0,0,1,.94-.87A.88.88,0,0,1,40.37,55.73Z"></path><path d="M48.91,67.16A.88.88,0,1,1,48,68,.9.9,0,0,1,48.91,67.16Z"></path><path d="M47.76,64.55a.84.84,0,0,1,.9.86.9.9,0,1,1-1.79,0A.85.85,0,0,1,47.76,64.55Z"></path><path d="M39.51,58.6a.82.82,0,0,1,.88-.85.89.89,0,0,1,.88.89,1,1,0,0,1-.92.88A.87.87,0,0,1,39.51,58.6Z"></path><path d="M103.2,88.26a.93.93,0,0,1-.87-1,1,1,0,0,1,1-.92.88.88,0,0,1,.85.94A1,1,0,0,1,103.2,88.26Z"></path><path d="M100.69,90.84a.84.84,0,0,1-.88.87.89.89,0,1,1,0-1.78A.84.84,0,0,1,100.69,90.84Z"></path><path d="M97.5,93.67a.84.84,0,0,1-.88.86.88.88,0,1,1,0-1.76A.84.84,0,0,1,97.5,93.67Z"></path><path d="M47.68,87.37a.89.89,0,0,1-.93.89,1,1,0,0,1-.92-1,.94.94,0,0,1,.94-.9A1,1,0,0,1,47.68,87.37Z"></path><path d="M53.35,92.77a.87.87,0,0,1,.91.84.89.89,0,1,1-1.77,0A.87.87,0,0,1,53.35,92.77Z"></path><path d="M50.18,89.92a.93.93,0,0,1,.89.89.89.89,0,1,1-1.77,0A.92.92,0,0,1,50.18,89.92Z"></path><path d="M124.43,87.36a.85.85,0,0,1,.88-.87.88.88,0,1,1,0,1.76A.84.84,0,0,1,124.43,87.36Z"></path><path d="M23.86,87.36a.85.85,0,0,1,.88-.87.92.92,0,0,1,.88.9.93.93,0,0,1-.91.87A.86.86,0,0,1,23.86,87.36Z"></path></g></svg> 