<?xml version="1.0" encoding="UTF-8"?> <svg xmlns="http://www.w3.org/2000/svg" xmlns:xlink="http://www.w3.org/1999/xlink" viewBox="0 0 150 150"><defs><clipPath id="a"><rect width="150" height="150" fill="none"></rect></clipPath></defs><g clip-path="url(#a)"><path d="M138.3,72.36a11.81,11.81,0,0,1,6.2,3.49,15.6,15.6,0,0,1,3.6,8.36A90.43,90.43,0,0,1,149,96c0,3.52-.63,7-.41,10.56.13,2,.34,4,.56,6s.66,4.06.8,6.12a34.58,34.58,0,0,1-1.77,12,44.6,44.6,0,0,1-2.14,6.57,9.9,9.9,0,0,1-4,4.78c-3.06,1.69-6,1.32-8.93-.44-1.44-.88-2.66-2-4-3l-.33-.25c-1.07-.66-1.11-.68-1.71.37a9,9,0,0,1-6.9,4.61,9.85,9.85,0,0,1-4.5-.77,8.47,8.47,0,0,1-1.53-.7A.78.78,0,0,0,113,142a9,9,0,0,1-3.8,2.2,15,15,0,0,1-4.31,1,18.27,18.27,0,0,1-7.37-.95,21.16,21.16,0,0,1-5-3c-.44-.31-.65-.33-1,.08a18.17,18.17,0,0,1-3.24,2.89,9,9,0,0,1-4.83,1.73,8.16,8.16,0,0,1-6.1-2,10.21,10.21,0,0,1-2.59-3.83c-.22-.56-.4-.62-.84-.19a23.82,23.82,0,0,1-5,3.62,12,12,0,0,1-7.53,1.54,17.77,17.77,0,0,1-6.21-2.34,1,1,0,0,0-1.34.12,13.13,13.13,0,0,1-3,2.11c-4.51,2.2-8.88,2.08-13.07-.77a13,13,0,0,1-2.53-2.32.69.69,0,0,0-1.06-.16,9.18,9.18,0,0,1-3.51,1.51,4.49,4.49,0,0,1-1.39-.11c-1.91-.44-3.79-.95-5-2.72-.38-.55-.95-1-1.28-1.55s-.63-.42-1-.09c-1,.88-2,1.77-3,2.62a16.27,16.27,0,0,1-6.48,3.85,7.88,7.88,0,0,1-8.85-3.11,17.64,17.64,0,0,1-2.58-6.57,28.54,28.54,0,0,1-1-8.62q.21-3.34.65-6.66c.16-1.3.25-2.61.37-3.91a58.24,58.24,0,0,1,1-6.17A9.84,9.84,0,0,0,2,107a37.68,37.68,0,0,1,0-9.19Q2.45,94.39,3,91c.54-3.6.57-7.24,1.14-10.82a23.29,23.29,0,0,1,3.42-9.77A.94.94,0,0,0,7.45,69,13.09,13.09,0,0,1,5.07,57.57a43.32,43.32,0,0,1,1.37-4.46,15.5,15.5,0,0,0,.27-9.36c-.88-3.49-2.12-6.88-3-10.38a29.49,29.49,0,0,1-.91-9.53A22.21,22.21,0,0,1,6.55,13.49,16.68,16.68,0,0,1,12.34,8.2a10.29,10.29,0,0,1,2.51-.89,37.25,37.25,0,0,1,5.39-1.44,13.26,13.26,0,0,1,5.53.55A24.52,24.52,0,0,1,30,8a1,1,0,0,0,1.28-.14,14.49,14.49,0,0,1,3.85-2.31,21.42,21.42,0,0,1,5.7-1.23A109.07,109.07,0,0,1,54,3.86a19.63,19.63,0,0,1,8.11,1.42,12.12,12.12,0,0,1,5.81,5.21c.29.51.56,1,.86,1.53.12.2.18.51.51.47s.34-.25.44-.46a16.17,16.17,0,0,1,1.93-3.22A10.22,10.22,0,0,1,76.9,4.89a7.86,7.86,0,0,1,4.26-.34,8.7,8.7,0,0,1,6.22,6c.11.32,0,.86.59.88a1.44,1.44,0,0,0,1.44-.65,17.54,17.54,0,0,1,2.48-3.57A6.61,6.61,0,0,1,93.17,6c1.66-1,3.34-1.92,5.38-1.81a9.42,9.42,0,0,1,6,2.25,13.26,13.26,0,0,1,3,4.46c.3.61.51.62,1,.26,1.28-1,2.56-2,3.87-2.94a25,25,0,0,1,7.11-3.84,14.42,14.42,0,0,1,9-.27A11.09,11.09,0,0,1,132.6,6.5a25.75,25.75,0,0,1,6.85,11.33A39.75,39.75,0,0,1,141,25.66a54.73,54.73,0,0,1,0,7.13c-.06,3.78.06,7.56.34,11.32.32,4.19.52,8.37.44,12.57,0,1.81.06,3.63,0,5.44a16.88,16.88,0,0,1-3.36,10A1.18,1.18,0,0,0,138.3,72.36Z" fill="#cf2257"></path><path d="M133.12,92a1.55,1.55,0,0,0-.65.92c-1,2.38-1.94,4.77-2.89,7.17a6.05,6.05,0,0,1-3.16,3.1,3.27,3.27,0,0,1-3,0,5.51,5.51,0,0,1-3.08-3.26A11,11,0,0,0,119,97.06c.08,1.37.15,2.54.23,3.71.36,5.26.81,10.5,1,15.77s.68,10.56.85,15.85a3.93,3.93,0,1,1-7.82.31c-.12-5.49-.49-11-.49-16.46,0-2.75,0-5.5-.05-8.24-.06-4.15-.19-8.29-.22-12.43,0-2.44.09-4.88.18-7.31a21.62,21.62,0,0,0-.18-3.86,2.41,2.41,0,0,1,2.72-2.73,4.77,4.77,0,0,1,3.48,2c1.75,2.41,3.54,4.77,5.14,7.28.14.22.23.51.6.66l.9-2a20.48,20.48,0,0,1,5.52-7.82,5.81,5.81,0,0,1,6.55-1.1,6,6,0,0,1,3.19,4.1,15.67,15.67,0,0,1,.52,5.24c-.14,3,.13,6,0,9-.23,5.33.05,10.65.11,16,0,4,.24,8.06.61,12.08.19,2,.25,4.08.29,6.12a4.38,4.38,0,0,1-4.21,4.57,4.31,4.31,0,0,1-4.6-4.06c-.21-6.47-.45-12.93-.48-19.41,0-6.24.28-12.48.27-18.73Z" fill="#eddbd2"></path><path d="M24.48,52.87a21.94,21.94,0,0,0-.68-5.16,4.91,4.91,0,0,0-3.09-3.61,31.55,31.55,0,0,1-5.61-2.64,12.42,12.42,0,0,1-6-9.62,24.92,24.92,0,0,1,2.25-13.18,12,12,0,0,1,7.34-6.74c5.87-1.81,12.7,1.64,13.89,8,.58,3.12.36,6.1-1.54,8.76a2.91,2.91,0,0,1-4.93-.28,3.44,3.44,0,0,1-.42-1.69c0-1.12,0-2.25-.18-3.36a3.77,3.77,0,0,0-2.94-3.47,2.53,2.53,0,0,0-2.48.68,6.87,6.87,0,0,0-1.62,2.62,18.62,18.62,0,0,0-1,7.69,4.24,4.24,0,0,0,2.21,3.38,21.69,21.69,0,0,0,3.45,1.53,16.08,16.08,0,0,1,5.81,3.6A13.78,13.78,0,0,1,32.4,46.1a30.77,30.77,0,0,1,.21,14.22A13.47,13.47,0,0,1,19.42,70.83a10.08,10.08,0,0,1-8.05-4.22A13.63,13.63,0,0,1,8.93,61a4.75,4.75,0,0,1,9.19-2.36c.18.56.29,1.14.52,1.68a1.5,1.5,0,0,0,2,1,4,4,0,0,0,2.66-2.15A13.68,13.68,0,0,0,24.48,52.87Z" fill="#eddbd2"></path><path d="M60.07,101.11c.07,3.87.52,8.11.82,12.35.19,2.6.2,5.21.21,7.81a23.41,23.41,0,0,0,.41,5.85c.1.37.1.88.56.95s.79-.36,1-.75a9.8,9.8,0,0,0,.9-3.91,22.74,22.74,0,0,0-.17-5.94,4.48,4.48,0,0,1,3.66-5.26,4.56,4.56,0,0,1,5.3,3.76,29,29,0,0,1,.29,7A22.85,22.85,0,0,1,72,129a10.73,10.73,0,0,1-6.34,7.18,8.79,8.79,0,0,1-11.56-4.72,18.09,18.09,0,0,1-1.29-8.15c.12-5,.08-9.91-.23-14.86a87,87,0,0,1,0-13.6,30.32,30.32,0,0,1,2.85-11.42c1.61-3.11,4-5.23,7.74-5.38a6.63,6.63,0,0,1,6.72,5.42,3.45,3.45,0,0,1-1.49,3.42,3.17,3.17,0,0,1-3.51-.55,2.73,2.73,0,0,1-.25-.23c-1.05-1-1.55-.92-2.36.31a13.77,13.77,0,0,0-1.61,4.92A39.59,39.59,0,0,0,60.07,101.11Z" fill="#eddbd2"></path><path d="M90.38,117.1c.25-3.31.06-6.61.31-9.91q.47-6,.67-11.91a47.8,47.8,0,0,0-.07-4.79c-.14-2,0-3.92-.14-5.88a4.14,4.14,0,0,1,1.09-2.93,1.65,1.65,0,0,1,1.57-.62A5.9,5.9,0,0,0,95.64,81a60.38,60.38,0,0,1,10.15-.34,3.9,3.9,0,0,1,3.67,3.72,4,4,0,0,1-3.17,4.16,10.29,10.29,0,0,1-2.6.12c-1.87-.1-3.75-.18-5.62-.31-.63,0-.67.22-.58.73a62.37,62.37,0,0,1,.9,6.82c.21,3.72.33,7.44.25,11.17,0,1.2,0,2.41,0,3.61,0,.53.17.6.65.49a23,23,0,0,1,4.45-.85,4.21,4.21,0,0,1,4.49,4.18,4.1,4.1,0,0,1-4.61,4,34.61,34.61,0,0,0-4.19-.23c-.42,0-.6.12-.59.57,0,3.16-.17,6.33.16,9.48.12,1.16.25,1.22,1.38,1s2.18-.53,3.27-.77a4.36,4.36,0,0,1,2,8.48,41.3,41.3,0,0,1-5.51,1.09c-4.83.47-8.08-2-9.26-6.64-.74-2.91-.57-5.89-.53-8.86C90.4,120.74,90.38,118.92,90.38,117.1Z" fill="#eddbd2"></path><path d="M37.84,55.78a147.2,147.2,0,0,1,1.32-15.09c.45-2.93,1.14-5.82,1.72-8.73.39-2,.59-4,.88-6.06.32-2.25.66-4.49,1-6.73,0-.25.06-.5.09-.75.07-.4-.05-.58-.49-.48-2.31.51-4.63.17-7,.16a3.29,3.29,0,0,1-3.11-2.71,3.41,3.41,0,0,1,1.92-3.75,13.19,13.19,0,0,1,3.94-1.13,17.14,17.14,0,0,0,1.89-.4,30.45,30.45,0,0,1,10.15-.84,7.55,7.55,0,0,1,1.25.19c2.45.6,5,.79,7.44,1.31a4.36,4.36,0,0,1,2.74,6.82,4.21,4.21,0,0,1-3.84,1.84,37.93,37.93,0,0,1-6.87-1.07c-.52-.12-1-.23-1.55-.37s-.73,0-.65.55a53.65,53.65,0,0,1,.21,9.05,97.46,97.46,0,0,1-1.27,11.94,54.44,54.44,0,0,0-.58,6.61c-.06,2.21-.24,4.42-.35,6.62-.18,3.82.43,7.61.45,11.42a4.48,4.48,0,0,1-3.32,4.59,4.37,4.37,0,0,1-5.53-3.71C38.06,61.91,38.1,58.74,37.84,55.78Z" fill="#eddbd2"></path><path d="M15.47,94.48c0,2.66,0,5.32,0,8,0,.64.13.85.79.75a6.64,6.64,0,0,1,2.51.08,10.28,10.28,0,0,0,2.42.19,4.13,4.13,0,1,1,0,8.25,12.57,12.57,0,0,1-4.12-.71l-.23-.1c-1.65-.55-1.88-.4-2,1.3-.31,4.78-.74,9.55-.6,14.35.07,2.33.34,4.64.52,7a6.06,6.06,0,0,1-1.3,4.08,3.49,3.49,0,0,1-5.78-.23,7,7,0,0,1-1.21-3.7c-.08-2.77-.36-5.53-.32-8.31,0-3.68.39-7.33.73-11,.56-6.11,1.26-12.2,1.45-18.34.11-3.61.6-7.2.91-10.8.07-.86.09-1.73.16-2.6a2.72,2.72,0,0,1,2.44-2.87c4-.54,7.85-1.89,11.93-1.84a12.2,12.2,0,0,1,2.41.28,3.78,3.78,0,0,1-1.08,7.46,20.3,20.3,0,0,1-2.07-.34,20.57,20.57,0,0,0-5.86.25c-.52,0-1.25-.25-1.54.27s0,1,0,1.57v7.06Z" fill="#eddbd2"></path><path d="M62.22,29c-1,0-2,0-2.94,0-.42,0-.67.14-.55.67A25.61,25.61,0,0,1,59.15,36c-.06,2.91.13,5.83-.12,8.74,0,.33,0,.54.44.42A11.5,11.5,0,0,1,60.8,45a3.51,3.51,0,0,1,3.87,2.52,3.46,3.46,0,0,1-2.15,4.15,22,22,0,0,1-3.72,1c-.31.07-.6.08-.66.5a70.13,70.13,0,0,0-1,7.06c0,1,0,1,1,1a35,35,0,0,0,7.83-.9,4.25,4.25,0,0,1,3,7.86,8.93,8.93,0,0,1-2.59,1,37,37,0,0,1-9.27.68,8.76,8.76,0,0,1-6.59-3,8,8,0,0,1-1.62-3.64A18,18,0,0,1,49.16,56a169.89,169.89,0,0,0,2.76-17.67,55.25,55.25,0,0,1,.88-6A21.12,21.12,0,0,0,53,29.63a2.24,2.24,0,0,0-.29-1.21,3.25,3.25,0,0,1,.7-4.19,11.56,11.56,0,0,1,7.23-3,15.05,15.05,0,0,0,5.13-1.12,4.13,4.13,0,0,1,5.48,2.34A4.25,4.25,0,0,1,68.9,28a13.09,13.09,0,0,1-3.32.86C64.46,29,63.34,28.91,62.22,29Z" fill="#eddbd2"></path><path d="M83.54,42.31c-.14,5-.06,10,.2,14.95.06,1,.12,2,.16,3,0,.57.19.87.85.8.89-.1,1.79-.11,2.69-.15a4.43,4.43,0,1,1,.19,8.84,37.81,37.81,0,0,0-6.19.35c-2.14.34-5.54-1-5.91-4a3.92,3.92,0,0,1,0-.59c.12-5.32-.4-10.63-.26-16,.13-5,.2-10,.35-15,.12-4,.33-7.95.28-11.93a63.37,63.37,0,0,1,.41-7.29A10.63,10.63,0,0,0,76.32,14a3.57,3.57,0,0,1,.59-2,1.9,1.9,0,0,1,2.78-.58,3.76,3.76,0,0,1,1.48,2,30.23,30.23,0,0,1,1.54,7.64,126.65,126.65,0,0,1,.67,14.18C83.34,37.6,83.62,40,83.54,42.31Z" fill="#eddbd2"></path><path d="M96.86,48.1c-.42-6.1-.25-12.21-.58-18.31-.15-2.65-.48-5.3-.71-7.95a36.67,36.67,0,0,1-.1-6.79,2.18,2.18,0,0,1,1.61-2,2.13,2.13,0,0,1,2.26,1.37,37.36,37.36,0,0,1,1.88,6.44,77.92,77.92,0,0,1,2.11,12.41c.25,2.68.28,5.37.57,8a131.87,131.87,0,0,1,.54,13.34c0,2.68.12,5.37,0,8.06,0,.56.12.82.72.79a6.72,6.72,0,0,1,1.26.12,3.67,3.67,0,0,1,3.14,2.76,3.8,3.8,0,0,1-1.49,3.92,6.89,6.89,0,0,1-4.89,1.39,8.69,8.69,0,0,0-1.35,0,4.61,4.61,0,0,1-5.33-4.84c0-3,.16-6.1.19-9.15,0-3.2,0-6.39,0-9.58Z" fill="#eddbd2"></path><path d="M77.42,129.73c-.34-4.8.42-9.5,1.14-14.21a30.13,30.13,0,0,0,.31-5.28c-.11-3.59,0-7.17.22-10.75.27-4.45.06-8.91-.11-13.36a11.19,11.19,0,0,1,.27-2.83,2,2,0,0,1,1.64-1.69A2.12,2.12,0,0,1,83,82.78a12.43,12.43,0,0,1,1.31,4.49A88.62,88.62,0,0,1,85.64,97c.08,2,.09,4,.2,6,.14,2.6.45,5.19.74,7.78a53.63,53.63,0,0,1-.09,9.65,88.55,88.55,0,0,0,0,9.91c.06,1.26.15,2.52.15,3.78a4.56,4.56,0,0,1-4.44,4.58,4.5,4.5,0,0,1-4.75-4.23C77.34,132.87,77.42,131.29,77.42,129.73Z" fill="#eddbd2"></path><path d="M50.07,90.9c-.6-3.5-1.69-6.78-4.24-9.41a8.13,8.13,0,0,0-9.56-1.62,10.8,10.8,0,0,0-4.87,6c-1.55,4.08-2,8.39-2.36,12.68s-.8,8.36-1.11,12.55q-.66,8.79-.78,17.61a15.27,15.27,0,0,0,.53,4.41A2.67,2.67,0,0,0,30,135.05a2.64,2.64,0,0,0,2.14-2.1c.24-1.18.42-2.37.64-3.55.66-3.56,1-7.16,1.27-10.76,0-.52.22-.72.74-.77,1.67-.16,3.34-.36,5-.55.61-.06.67.25.63.77-.27,3.6-.55,7.2-.75,10.8-.13,2.27-.17,4.53-.45,6.78a4.78,4.78,0,0,0,4,5.1,4.86,4.86,0,0,0,5.45-3.57,14.77,14.77,0,0,0,.42-2.82c.14-3.72.21-7.44.39-11.16.25-4.87.31-9.74.46-14.61h0c.1-3.08.19-6.16.3-9.24A40.66,40.66,0,0,0,50.07,90.9ZM41.24,104c-.11,1.48-.23,3-.3,4.44,0,.56-.16.87-.79.92a5.78,5.78,0,0,0-2.1.58,18.11,18.11,0,0,1-2.81.82c-.49.14-.58,0-.53-.47.21-1.89.38-3.79.57-5.68.42-4.18.75-8.37,1.51-12.51a20.07,20.07,0,0,1,1-3.89,3.71,3.71,0,0,1,.9-1.4c.57-.53,1-.52,1.51.07a6.67,6.67,0,0,1,1.25,2.81A20.45,20.45,0,0,1,42,94.64C41.75,97.32,41.49,100.67,41.24,104Z" fill="#eddbd2"></path><path d="M134.47,37.4c0-.47-.07-1.11-.1-1.76-.25-4.38-.27-8.79-.88-13.15a19.72,19.72,0,0,0-2-6.89,9.19,9.19,0,0,0-10.34-4.77,11.22,11.22,0,0,0-6.84,5.22,20.89,20.89,0,0,0-2.67,9.19c-.26,2.54-.17,5.09-.25,7.64-.11,3.5-.19,7-.14,10.5,0,2.8.5,5.59.44,8.39,0,1.43-.12,2.86-.16,4.29-.09,2.94.31,5.87.49,8.8a8.71,8.71,0,0,0,.51,2.89,2.59,2.59,0,0,0,2.34,1.73,2.55,2.55,0,0,0,2-2.2,25.54,25.54,0,0,0,.29-4.27c-.08-4.4.29-8.79.35-13.19,0-.33.09-.53.45-.56,2.29-.22,4.59-.82,6.83.38.52.29.69.49.61,1-.22,1.61-.42,3.22-.52,4.84-.16,2.49-.29,5-.59,7.46a29.2,29.2,0,0,0-.27,6.2,4.47,4.47,0,0,0,4.55,4.07A4.38,4.38,0,0,0,132.94,69c0-2.47.28-4.92.41-7.38.14-2.63.14-5.28.43-7.89A122.93,122.93,0,0,0,134.47,37.4Zm-8.33-4.87c.11,3,0,6-.06,9,0,.57-.21.7-.7.55a8.81,8.81,0,0,0-5.44.3c-.64.2-1.31.32-2,.53s-.84,0-.81-.64c.09-2.3.13-4.59.21-6.89.09-2.74.14-5.49.3-8.22a19,19,0,0,1,1.2-6.58,5.76,5.76,0,0,1,2.68-3,2.33,2.33,0,0,1,3.41,1,8.25,8.25,0,0,1,.91,3.47,78.22,78.22,0,0,1,.25,9.56C126.13,31.91,126.14,32.22,126.14,32.53Z" fill="#eddbd2"></path><path d="M102,140.56c-.12-.29-.6-.15-.65-.63a8.64,8.64,0,0,0,4.31-.91,7,7,0,0,0,4.14-8.47,4.81,4.81,0,0,1-.23-.8c0-.23-.15-.54.22-.62s.47.16.55.4a7.34,7.34,0,0,1,.53,3.11,16.56,16.56,0,0,1-.34,2,6.69,6.69,0,0,1-4.63,5c-1.11.39-2.25.68-3.39,1Z" fill="#eddbd2"></path><path d="M81.8,140.56c0-.26-.37-.07-.46-.28s.4-.27.59-.31a13.26,13.26,0,0,0,3.28-1.18,5,5,0,0,0,3-4.54c0-.37-.17-1,.38-.94s.47.62.42,1c-.32,2.26-1.19,4.15-3.45,5.13a21.23,21.23,0,0,1-3.26,1.11Z" fill="#eddbd2"></path><path d="M100.64,11.74c1.66.89,2.22,2.64,3.18,4.08a1.2,1.2,0,0,1,.15.56c0,.26,0,.54-.32.61s-.46-.16-.52-.42A14,14,0,0,0,102,14.06a3.68,3.68,0,0,0-1.39-1.72.58.58,0,0,1-.35-.6Z" fill="#eddbd2"></path><path d="M140.86,81.26a2,2,0,0,1,1.3,1.5,8.74,8.74,0,0,1,.37,2.22c0,4.48.36,9,.46,13.43,0,1.57-.09,3.14-.13,4.71-.07,2.75.42,5.46.57,8.2.07,1.18.11,2.35.08,3.53a87,87,0,0,0,.3,9.82,2,2,0,0,1,0,.42c0,.29-.1.59-.45.59s-.4-.27-.41-.54c-.1-1.56-.25-3.13-.28-4.69-.05-2.33,0-4.65,0-7,0-2.81-.37-5.58-.58-8.37-.13-1.74.08-3.47.1-5.21,0-2.43.09-4.87-.11-7.3-.18-2.24-.08-4.48-.08-6.72A7.06,7.06,0,0,0,140.86,81.26Z" fill="#eddbd2"></path><path d="M87.43,124.76a1.57,1.57,0,0,1-.24-1.1,73.46,73.46,0,0,1,.45-7.7,16.53,16.53,0,0,0-.19-4.44,13.32,13.32,0,0,1-.15-2.75,20.69,20.69,0,0,0-.34-4,28.18,28.18,0,0,1-.29-3.42c0-2.27-.23-4.53-.3-6.8A64.17,64.17,0,0,0,85.28,85c0-.08,0-.16-.07-.24,0-.28,0-.55.31-.61s.45.16.5.43c.17.9.33,1.81.49,2.72A69.27,69.27,0,0,1,87.22,95c.25,3.88.3,7.76.73,11.64a49.2,49.2,0,0,1,.35,7.86c-.18,3.32-.48,6.64-.69,10A.28.28,0,0,1,87.43,124.76Z" fill="#eddbd2"></path><path d="M124.44,73.62c1.13.2,2.24.35,3.31.58,3.37.69,5.45-1.72,6.11-4a19.17,19.17,0,0,0,.59-3.8c.24-2.69,0-5.37.16-8.06.07-1.53.34-3.05.51-4.57.25-2.2.37-4.4.5-6.61,0-.36,0-.73.1-1.09,0-.2.14-.39.37-.38s.38.21.38.47,0,.44,0,.67c-.21,3.82-.52,7.64-1.11,11.43a17,17,0,0,0-.06,2.94,39.93,39.93,0,0,1-.69,8.66c-.49,2.52-2.59,4.69-4.79,4.91a11.19,11.19,0,0,1-5.07-.81A.41.41,0,0,1,124.44,73.62Z" fill="#eddbd2"></path><path d="M122.19,130.64a5.11,5.11,0,0,1-.11-1.24,52.89,52.89,0,0,0-.19-8c-.11-1.09,0-2.19-.07-3.28-.18-3.83-.36-7.65-.78-11.46,0,0,0-.06,0-.09,0-.55-.27-1.21.2-1.6s1,.18,1.43.39c2.1,1,4,.85,5.42-1.12.6-.81,1.31-1.53,1.84-2.4.15-.25.35-.5.66-.33s.17.49,0,.73a13.77,13.77,0,0,1-3.09,3.73c-1.53,1.2-3.25.93-4.93.22-.27-.11-.53-.27-.92-.47a227.94,227.94,0,0,1,.92,24.86Z" fill="#eddbd2"></path><path d="M84.88,58.3A3.71,3.71,0,0,1,85,56.64a32.69,32.69,0,0,0-.07-5,81.42,81.42,0,0,1,.16-10.82,36.44,36.44,0,0,0,0-4.79c-.13-3.35-.31-6.71-.48-10.06,0-.7-.13-1.39-.18-2.09,0-.24-.06-.57.31-.58s.38.26.41.53a39.41,39.41,0,0,1,.39,5.52c-.06,2.36.09,4.71.18,7.06a36.48,36.48,0,0,1-.2,5.53c-.08.72,0,1.45-.06,2.18,0,1.43,0,2.85-.1,4.28,0,1.87.1,3.75.23,5.62a10.42,10.42,0,0,1-.42,4C85.16,58.16,85.16,58.33,84.88,58.3Z" fill="#eddbd2"></path><path d="M14.65,72a16.57,16.57,0,0,0,3,.69,16.84,16.84,0,0,0,8-1.25c2.7-1.2,4.54-3.41,6.24-5.71a9.67,9.67,0,0,0,1.95-4.22c.05-.31.21-.7.54-.64s.4.46.33.83a10,10,0,0,1-1.14,3,21.08,21.08,0,0,1-5.76,6.49c-1.83,1.43-4.09,1.85-6.33,2.19a15.45,15.45,0,0,1-5.34-.16A1.89,1.89,0,0,1,14.65,72Z" fill="#eddbd2"></path><path d="M61.55,139.08a8.77,8.77,0,0,1,2.4-.7,13.88,13.88,0,0,0,4.67-1.73c3.29-2,4.81-5.14,5.45-8.81a41.75,41.75,0,0,0,.16-8.8c0-.39-.24-1.1.34-1.12s.47.7.47,1.14c0,2.27.21,4.54,0,6.81a15.23,15.23,0,0,1-3.18,8.91,11.49,11.49,0,0,1-7.18,4.1c-.71.13-1.42.29-2.13.45A1,1,0,0,1,61.55,139.08Z" fill="#eddbd2"></path><path d="M105.43,59.62c.29-2.3-.36-4.61.12-6.9a11.16,11.16,0,0,0-.08-3.51,31.91,31.91,0,0,1-.13-4.37,48.66,48.66,0,0,0-.29-5.53c-.13-1.53,0-3.07,0-4.61-.07-3-.24-6-.54-9,0-.34-.12-.66-.17-1s0-.44.19-.51.4.18.45.38a15.68,15.68,0,0,1,.35,2.74c.34,4.08.26,8.17.4,12.25.09,2.66.09,5.32.15,8A30.91,30.91,0,0,1,106,53c-.28,1.85.07,3.69-.13,5.53A1.55,1.55,0,0,1,105.43,59.62Z" fill="#eddbd2"></path><path d="M60.4,42.68c-.19-.16-.12-.36-.1-.54a24.47,24.47,0,0,0-.14-6.51,41.8,41.8,0,0,1,0-4.19c0-.3.1-.61.45-.6a26,26,0,0,0,5.69-.78,17.62,17.62,0,0,1,2.31-.35c2.19-.15,3.39-1.5,3.46-3.84,0-.56,0-1.12,0-1.68,0-.14,0-.29.2-.32s.25.07.32.2c1.08,2.1-.45,5.53-2.77,6.17-1,.28-2,.22-3,.5a45.45,45.45,0,0,1-5.19.92c-.41.06-.61.12-.6.61,0,2.33-.07,4.65.12,7A6.54,6.54,0,0,1,60.4,42.68Z" fill="#eddbd2"></path><path d="M11,140.31c.49-.29.81-.5,1.15-.68A7.36,7.36,0,0,0,16,133.1a61.94,61.94,0,0,0-.27-7.46,13,13,0,0,1,0-1.76,48.48,48.48,0,0,0,0-7.13,2.7,2.7,0,0,1,.18-1.48.42.42,0,0,1,.47-.27c.26,0,.29.25.27.44-.25,2.43.27,4.85,0,7.29s.2,4.8.15,7.21a20.62,20.62,0,0,1-.56,5.49,7.33,7.33,0,0,1-3.75,4.6A1.76,1.76,0,0,1,11,140.31Z" fill="#eddbd2"></path><path d="M16.62,100.65a5.6,5.6,0,0,1,.13-2.38,15.05,15.05,0,0,0,.08-3.35,55,55,0,0,1,0-6.29c0-.44.15-.67.61-.73,1.76-.2,3.48-.78,5.3-.53,1,.13,1.95.11,2.93.15a2.9,2.9,0,0,0,2.35-1.27c.24-.28.48-.89.95-.5s-.1.74-.32,1a3.64,3.64,0,0,1-3.58,1.53,29.07,29.07,0,0,0-6.85.15c-.45.06-.51.24-.53.63-.09,2.83-.18,5.65-.34,8.47A7.54,7.54,0,0,1,16.62,100.65Z" fill="#eddbd2"></path><path d="M62,107.3a23.1,23.1,0,0,1-.29-3.53,71.9,71.9,0,0,1,0-8.56,20.06,20.06,0,0,1,.72-4.28C63,88.88,64,88.28,66,88.83c1.17.32,2.2.38,3-.69.14-.18.37-.31.58-.09a.53.53,0,0,1,0,.7,2.68,2.68,0,0,1-2.48,1.12,9.47,9.47,0,0,1-1.48-.3c-1.41-.36-2.1,0-2.5,1.43a27.44,27.44,0,0,0-.93,8.12c0,2.33,0,4.65,0,7A1.9,1.9,0,0,1,62,107.3Z" fill="#eddbd2"></path><path d="M72.52,64.34c0-.17,0-.39,0-.62s0-.48.31-.51.39.18.41.43a4.54,4.54,0,0,1,0,1.84C72,68.58,70.11,71,66.86,72a20.08,20.08,0,0,1-4.24.52,20.27,20.27,0,0,1-5.1.24A12.54,12.54,0,0,1,53,71.56a4.1,4.1,0,0,1-.56-.36c-.07-.06-.18-.16-.1-.29a.21.21,0,0,1,.28-.08c.24.1.47.18.7.29a12.81,12.81,0,0,0,7.1,1c1.69-.21,3.39-.37,5.09-.51A7.55,7.55,0,0,0,71,68.19C71.85,67.07,72.73,65.93,72.52,64.34Z" fill="#eddbd2"></path><path d="M75.75,70.61a1.86,1.86,0,0,1,1.75.5,5.27,5.27,0,0,0,5.52.68,8.12,8.12,0,0,1,4.37-.25c2.35.33,5.75-1.14,6.42-3.88a3.66,3.66,0,0,0,.09-1c0-.17,0-.34.21-.41s.38.06.5.22a1.39,1.39,0,0,1,.06,1.21A6.1,6.1,0,0,1,90,72.07a7.85,7.85,0,0,1-3.48.12,6.55,6.55,0,0,0-3.22.26,6.1,6.1,0,0,1-6.09-.85C76.78,71.23,76.25,70.94,75.75,70.61Z" fill="#eddbd2"></path><path d="M28.68,136.42c.31-.08.52-.17.73-.2a4.15,4.15,0,0,0,3.79-4.17c.28-3.32.46-6.65,1-9.94.08-.49.23-1,.32-1.47A2,2,0,0,1,36,119a6.31,6.31,0,0,1,1.83-.2c.26,0,.55,0,.59.34s-.3.43-.56.46-.73,0-1.09.07a1.61,1.61,0,0,0-1.74,1.48,32.08,32.08,0,0,0-.68,4.48c-.22,2.45-.42,4.9-.69,7.35a4.72,4.72,0,0,1-3.76,3.81A1.29,1.29,0,0,1,28.68,136.42Z" fill="#eddbd2"></path><path d="M36.48,107.54a4.45,4.45,0,0,1,0-2.55c.42-3.72.55-7.47,1.26-11.15a22.41,22.41,0,0,0,.2-2.59,2.39,2.39,0,0,1,.93-1.89c.25-.18.54-.4.82-.09s0,.55-.27.73a1.51,1.51,0,0,0-.61,1.14c-.15,2.35-.72,4.63-1,7s-.43,4.39-.67,6.58A7.74,7.74,0,0,1,36.48,107.54Z" fill="#eddbd2"></path><path d="M100.39,126.63c-.37-.14-.25-.44-.26-.66,0-1.48,0-3-.15-4.45-.12-1.2.34-1.69,1.53-1.84a29.6,29.6,0,0,1,3.52-.14c2.53,0,4-1.51,3.89-4.05,0-.25,0-.5,0-.76s0-.42.24-.46.35.15.43.34a2.25,2.25,0,0,1,.08.24,4.51,4.51,0,0,1-3.69,5.39c-1.09.07-2.18,0-3.27,0a11.5,11.5,0,0,0-1.17.08c-.67,0-.93.4-.89,1.06a33.85,33.85,0,0,1,0,3.77A6.56,6.56,0,0,1,100.39,126.63Z" fill="#eddbd2"></path><path d="M106.74,73.32c-.53-.06-1.06-.1-1.58-.18-1.29-.2-2.47.37-3.7.55A4.37,4.37,0,0,1,99,73.32a10.72,10.72,0,0,0-1.85-.94.24.24,0,0,1-.22-.3c.06-.18.23-.13.36-.13a1.83,1.83,0,0,1,1.08.39,4.28,4.28,0,0,0,4.06.51,8.45,8.45,0,0,1,3.89-.36,3.72,3.72,0,0,0,4-2.76c.06-.27.18-.52.49-.46s.42.44.32.75a4.63,4.63,0,0,1-3,3.09A3.53,3.53,0,0,1,106.74,73.32Z" fill="#eddbd2"></path><path d="M9.27,37.78c.72.82,1.41,1.66,2.16,2.45,2.05,2.14,4.28,4,7.28,4.7a4.56,4.56,0,0,1,3.15,2.16c.16.28.41.55.15,1a3.55,3.55,0,0,1-1.1-1,3.88,3.88,0,0,0-2.17-1.35c-3.39-.84-5.85-3-8-5.61-.59-.69-1.09-1.46-1.63-2.19Z" fill="#eddbd2"></path><path d="M100.57,108.1c-.33-.46-.13-.86-.13-1.24a54.14,54.14,0,0,0-.53-8.44,9.65,9.65,0,0,1,0-2,22.56,22.56,0,0,0-.06-4.19c0-.3-.07-.69.33-.75s.46.32.47.63a27.27,27.27,0,0,1-.1,4.78,6,6,0,0,0,0,1.75,40.36,40.36,0,0,1,.42,7.2A6.38,6.38,0,0,1,100.57,108.1Z" fill="#eddbd2"></path><path d="M48,47a8.93,8.93,0,0,1,0-3.92c.29-1.67.58-3.35.73-5,.21-2.25.63-4.48,1-6.71a11.44,11.44,0,0,0,.12-1.75c0-.22.07-.45.27-.47s.36.21.39.44a7.17,7.17,0,0,1-.18,2.17c-.52,2.77-1,5.55-1.32,8.35-.28,2.12-.79,4.22-.9,6.37A2.83,2.83,0,0,1,48,47Z" fill="#eddbd2"></path><path d="M58.49,59.33c-.36-.27-.27-.64-.21-.94.24-1.32.54-2.62.78-3.93a1,1,0,0,1,.76-.89c1.37-.41,2.63-1.06,4-1.6a2.55,2.55,0,0,0,1.71-2.42c0-.17,0-.33,0-.5s0-.42.26-.46.38.16.44.4a3.25,3.25,0,0,1-1.93,3.62c-1.34.45-2.62,1.1-4,1.42a.82.82,0,0,0-.69.78c-.22,1.29-.52,2.57-.77,3.85A1.09,1.09,0,0,1,58.49,59.33Z" fill="#eddbd2"></path><path d="M48,139.9a1.32,1.32,0,0,1,.52-.74c1.52-1.29,1.86-3,2-4.89a57.6,57.6,0,0,0,.16-6.7c0-.24-.09-.55.26-.62s.47.24.5.51a12.1,12.1,0,0,1,.11,1.34,31.18,31.18,0,0,1-.85,8A4.56,4.56,0,0,1,48,139.9Z" fill="#eddbd2"></path><path d="M26.83,31.3a16.1,16.1,0,0,0,2-.12c2.84-.5,4-2.52,4.38-4.82.23-1.59.87-3.13.68-4.79,0-.2,0-.42.3-.4s.37.24.39.47A7.28,7.28,0,0,1,34.36,24c-.24,1.18-.48,2.35-.8,3.51-.79,2.84-2.63,4-5.23,4.27A1.92,1.92,0,0,1,26.83,31.3Z" fill="#eddbd2"></path><path d="M33,42a4.8,4.8,0,0,1,1.57,2.81,34,34,0,0,1,1.14,6.57c0,.14,0,.28,0,.42,0,.34,0,.75-.43.78s-.5-.43-.49-.75a43.27,43.27,0,0,0-.72-6.21,7.7,7.7,0,0,0-1-3.06A.46.46,0,0,1,33,42Z" fill="#eddbd2"></path><path d="M102.47,91.3a5.92,5.92,0,0,1,2.63-.1,4.76,4.76,0,0,0,3.13-.65,3.07,3.07,0,0,0,1.47-2c.18-.68.34-1.35.5-2,.06-.26.13-.53.46-.48s.29.37.26.61c-.54,3.55-1.94,5.49-6.29,5A4.24,4.24,0,0,1,102.47,91.3Z" fill="#eddbd2"></path><path d="M42.83,71.55a6.43,6.43,0,0,1-3-.66c-.27-.16-.75-.34-.56-.69s.54,0,.8.14a5.35,5.35,0,0,0,3.26.5,5.25,5.25,0,0,0,3.41-2.61c.24-.35.32-1.17.88-.84s0,.91-.25,1.27A5.65,5.65,0,0,1,42.83,71.55Z" fill="#eddbd2"></path><path d="M48.36,81a2.63,2.63,0,0,1,2,1.57A6.23,6.23,0,0,1,51,85c.19,1.27.34,2.54.51,3.81,0,.3.13.67-.32.73s-.5-.27-.54-.59c-.15-1.27-.34-2.54-.45-3.81a5,5,0,0,0-1.7-3.76C48.45,81.28,48.44,81.18,48.36,81Z" fill="#eddbd2"></path><path d="M18.43,30.09a13.52,13.52,0,0,1,.3-5.6,3.73,3.73,0,0,1,1.35-2.06,2.72,2.72,0,0,1,3.73.29c.1.11.18.23.1.37a.3.3,0,0,1-.35.15,3.38,3.38,0,0,1-1-.48,1.7,1.7,0,0,0-2.22.2,4.75,4.75,0,0,0-1.45,3.53c-.09,1-.13,2-.19,3A.66.66,0,0,1,18.43,30.09Z" fill="#eddbd2"></path><path d="M118.77,27.91c-.35-.06-.3-.26-.3-.41a12,12,0,0,1,2-7,3.14,3.14,0,0,1,2-1.38c.25-.06.61-.13.7.26s-.24.44-.52.47a2.68,2.68,0,0,0-2,1.4A12.29,12.29,0,0,0,119,26.63C118.9,27.06,118.83,27.49,118.77,27.91Z" fill="#eddbd2"></path><path d="M20.69,114a7.29,7.29,0,0,1-2.18-.46c-.21-.08-.5-.16-.42-.42s.38-.16.6-.13c.55,0,1.1.17,1.66.18A4.2,4.2,0,0,0,24.56,111c.13-.25.29-.64.67-.41s.12.55,0,.82C24.24,113.23,22.56,113.81,20.69,114Z" fill="#eddbd2"></path><path d="M112.67,71.34a5.65,5.65,0,0,0,2.77-.24,3.24,3.24,0,0,0,2.22-2,7.39,7.39,0,0,0,.66-2.65c0-.28,0-.66.37-.66s.3.4.29.66a6.57,6.57,0,0,1-1.38,4c-1.09,1.33-2.66,1.5-4.25,1.49a1,1,0,0,1-.39-.14,3.88,3.88,0,0,1-.33-.23Z" fill="#eddbd2"></path><path d="M116.38,138.75a10.7,10.7,0,0,1,2.29-.53,3.79,3.79,0,0,0,3.21-3c0-.09.06-.16.07-.24,0-.24.15-.46.43-.4s.3.32.24.6a4.59,4.59,0,0,1-4.31,3.67C117.73,138.91,117.11,139.2,116.38,138.75Z" fill="#eddbd2"></path><path d="M50,21.47c0-1.78.19-2,2-1.75.49.07,1,.07,1.5.12.19,0,.42.09.42.33s-.27.31-.49.3c-.73,0-1.45-.09-2.18-.16-.47,0-.66.11-.61.6a3.88,3.88,0,0,1-.11,1.66c-.05.18-.14.35-.32.32s-.19-.24-.19-.41C50,22.14,50,21.81,50,21.47Z" fill="#eddbd2"></path><path d="M61.56,19.26c.16-.39.49-.52.73-.74a3.94,3.94,0,0,0,1.4-4c0-.21-.17-.47.13-.57s.41.13.47.35a4.2,4.2,0,0,1-2.52,5S61.67,19.28,61.56,19.26Z" fill="#eddbd2"></path><path d="M35,19.31a1.89,1.89,0,0,1,.48,0c1.54.63,3.14.32,4.72.29a2.78,2.78,0,0,1,.5,0c.16,0,.24.12.23.29a.29.29,0,0,1-.18.25c-1,.53-4.74.16-5.6-.56C35.13,19.55,35.12,19.48,35,19.31Z" fill="#eddbd2"></path><path d="M118.32,50.54a1.1,1.1,0,0,1,.91-.4,13.84,13.84,0,0,1,4.2.48c.21.05.45.16.41.45s-.29.26-.46.2a12.42,12.42,0,0,0-4.69-.55C118.57,50.72,118.46,50.61,118.32,50.54Z" fill="#eddbd2"></path><path d="M134.38,138.62c1.16-.13,2.26.27,3.4.21a.3.3,0,0,1,.29.35.48.48,0,0,1-.4.38,6.73,6.73,0,0,1-3.29-.94Z" fill="#eddbd2"></path><path d="M123.84,87.69a.36.36,0,0,1-.26.38.39.39,0,0,1-.42-.22c-.24-.41-.45-.83-.71-1.23a1.79,1.79,0,0,0-.66-.73c-.12-.07-.27-.15-.2-.31a.38.38,0,0,1,.43-.18A4.19,4.19,0,0,1,123.84,87.69Z" fill="#eddbd2"></path><path d="M29.22,78.83a2.45,2.45,0,0,1,1.67,2c0,.17,0,.35-.2.42s-.45,0-.48-.2A6.86,6.86,0,0,0,29.22,78.83Z" fill="#eddbd2"></path><path d="M18.54,56.81c.65.85.74,2,1.8,2.72C19.37,59.67,19,59.05,18.54,56.81Z" fill="#eddbd2"></path><path d="M50.59,64.77c-.16-.69-.82-1-.45-1.68.14-.24.28-.45.57-.37s.33.35.26.62S50.76,64.14,50.59,64.77Z" fill="#eddbd2"></path></g></svg> 